<svg id="_0305_taj_mahal" xmlns="http://www.w3.org/2000/svg" xmlns:xlink="http://www.w3.org/1999/xlink" viewBox="0 0 500 500" data-imageid="taj-mahal-52" imageName="Taj Mahal" class="illustrations_image" style="width: 166px;"><defs><style>.cls-1_taj-mahal-52{opacity:.6;}.cls-1_taj-mahal-52,.cls-2_taj-mahal-52,.cls-3_taj-mahal-52,.cls-4_taj-mahal-52,.cls-5_taj-mahal-52,.cls-6_taj-mahal-52,.cls-7_taj-mahal-52,.cls-8_taj-mahal-52,.cls-9_taj-mahal-52,.cls-10_taj-mahal-52,.cls-11_taj-mahal-52,.cls-12_taj-mahal-52,.cls-13_taj-mahal-52,.cls-14_taj-mahal-52,.cls-15_taj-mahal-52,.cls-16_taj-mahal-52,.cls-17_taj-mahal-52,.cls-18_taj-mahal-52,.cls-19_taj-mahal-52,.cls-20_taj-mahal-52,.cls-21_taj-mahal-52,.cls-22_taj-mahal-52,.cls-23_taj-mahal-52,.cls-24_taj-mahal-52,.cls-25_taj-mahal-52,.cls-26_taj-mahal-52,.cls-27_taj-mahal-52,.cls-28_taj-mahal-52,.cls-29_taj-mahal-52,.cls-30_taj-mahal-52,.cls-31_taj-mahal-52,.cls-32_taj-mahal-52,.cls-33_taj-mahal-52,.cls-34_taj-mahal-52,.cls-35_taj-mahal-52,.cls-36_taj-mahal-52,.cls-37_taj-mahal-52,.cls-38_taj-mahal-52,.cls-39_taj-mahal-52,.cls-40_taj-mahal-52,.cls-41_taj-mahal-52,.cls-42_taj-mahal-52,.cls-43_taj-mahal-52,.cls-44_taj-mahal-52,.cls-45_taj-mahal-52,.cls-46_taj-mahal-52,.cls-47_taj-mahal-52,.cls-48_taj-mahal-52,.cls-49_taj-mahal-52,.cls-50_taj-mahal-52,.cls-51_taj-mahal-52,.cls-52_taj-mahal-52,.cls-53_taj-mahal-52,.cls-54_taj-mahal-52,.cls-55_taj-mahal-52,.cls-56_taj-mahal-52,.cls-57_taj-mahal-52,.cls-58_taj-mahal-52,.cls-59_taj-mahal-52,.cls-60_taj-mahal-52,.cls-61_taj-mahal-52,.cls-62_taj-mahal-52,.cls-63_taj-mahal-52,.cls-64_taj-mahal-52,.cls-65_taj-mahal-52,.cls-66_taj-mahal-52,.cls-67_taj-mahal-52,.cls-68_taj-mahal-52,.cls-69_taj-mahal-52,.cls-70_taj-mahal-52,.cls-71_taj-mahal-52,.cls-72_taj-mahal-52,.cls-73_taj-mahal-52,.cls-74_taj-mahal-52,.cls-75_taj-mahal-52,.cls-76_taj-mahal-52,.cls-77_taj-mahal-52,.cls-78_taj-mahal-52,.cls-79_taj-mahal-52,.cls-80_taj-mahal-52,.cls-81_taj-mahal-52,.cls-82_taj-mahal-52,.cls-83_taj-mahal-52,.cls-84_taj-mahal-52,.cls-85_taj-mahal-52,.cls-86_taj-mahal-52{stroke-width:0px;}.cls-1_taj-mahal-52,.cls-76_taj-mahal-52,.cls-85_taj-mahal-52,.cls-86_taj-mahal-52{fill:#68e1fd;}.cls-1_taj-mahal-52,.cls-76_taj-mahal-52,.cls-86_taj-mahal-52{isolation:isolate;}.cls-2_taj-mahal-52{fill:url(#linear-gradient);}.cls-3_taj-mahal-52{fill:url(#linear-gradient-38-taj-mahal-52);}.cls-4_taj-mahal-52{fill:url(#linear-gradient-33-taj-mahal-52);}.cls-5_taj-mahal-52{fill:url(#linear-gradient-29-taj-mahal-52);}.cls-6_taj-mahal-52{fill:url(#linear-gradient-32-taj-mahal-52);}.cls-7_taj-mahal-52{fill:url(#linear-gradient-30-taj-mahal-52);}.cls-8_taj-mahal-52{fill:url(#linear-gradient-31-taj-mahal-52);}.cls-9_taj-mahal-52{fill:url(#linear-gradient-36-taj-mahal-52);}.cls-10_taj-mahal-52{fill:url(#linear-gradient-39-taj-mahal-52);}.cls-11_taj-mahal-52{fill:url(#linear-gradient-34-taj-mahal-52);}.cls-12_taj-mahal-52{fill:url(#linear-gradient-37-taj-mahal-52);}.cls-13_taj-mahal-52{fill:url(#linear-gradient-35-taj-mahal-52);}.cls-14_taj-mahal-52{fill:url(#linear-gradient-28-taj-mahal-52);}.cls-15_taj-mahal-52{fill:url(#linear-gradient-25-taj-mahal-52);}.cls-16_taj-mahal-52{fill:url(#linear-gradient-11-taj-mahal-52);}.cls-17_taj-mahal-52{fill:url(#linear-gradient-12-taj-mahal-52);}.cls-18_taj-mahal-52{fill:url(#linear-gradient-13-taj-mahal-52);}.cls-19_taj-mahal-52{fill:url(#linear-gradient-10-taj-mahal-52);}.cls-20_taj-mahal-52{fill:url(#linear-gradient-17-taj-mahal-52);}.cls-21_taj-mahal-52{fill:url(#linear-gradient-16-taj-mahal-52);}.cls-22_taj-mahal-52{fill:url(#linear-gradient-19-taj-mahal-52);}.cls-23_taj-mahal-52{fill:url(#linear-gradient-15-taj-mahal-52);}.cls-24_taj-mahal-52{fill:url(#linear-gradient-23-taj-mahal-52);}.cls-25_taj-mahal-52{fill:url(#linear-gradient-21-taj-mahal-52);}.cls-26_taj-mahal-52{fill:url(#linear-gradient-18-taj-mahal-52);}.cls-27_taj-mahal-52{fill:url(#linear-gradient-14-taj-mahal-52);}.cls-28_taj-mahal-52{fill:url(#linear-gradient-22-taj-mahal-52);}.cls-29_taj-mahal-52{fill:url(#linear-gradient-20-taj-mahal-52);}.cls-30_taj-mahal-52{fill:url(#linear-gradient-27-taj-mahal-52);}.cls-31_taj-mahal-52{fill:url(#linear-gradient-24-taj-mahal-52);}.cls-32_taj-mahal-52{fill:url(#linear-gradient-26-taj-mahal-52);}.cls-33_taj-mahal-52{fill:url(#linear-gradient-45-taj-mahal-52);}.cls-34_taj-mahal-52{fill:url(#linear-gradient-46-taj-mahal-52);}.cls-35_taj-mahal-52{fill:url(#linear-gradient-44-taj-mahal-52);}.cls-36_taj-mahal-52{fill:url(#linear-gradient-48-taj-mahal-52);}.cls-37_taj-mahal-52{fill:url(#linear-gradient-49-taj-mahal-52);}.cls-38_taj-mahal-52{fill:url(#linear-gradient-47-taj-mahal-52);}.cls-39_taj-mahal-52{fill:url(#linear-gradient-42-taj-mahal-52);}.cls-40_taj-mahal-52{fill:url(#linear-gradient-43-taj-mahal-52);}.cls-41_taj-mahal-52{fill:url(#linear-gradient-40-taj-mahal-52);}.cls-42_taj-mahal-52{fill:url(#linear-gradient-41-taj-mahal-52);}.cls-43_taj-mahal-52{fill:url(#linear-gradient-59-taj-mahal-52);}.cls-44_taj-mahal-52{fill:url(#linear-gradient-57-taj-mahal-52);}.cls-45_taj-mahal-52{fill:url(#linear-gradient-58-taj-mahal-52);}.cls-46_taj-mahal-52{fill:url(#linear-gradient-55-taj-mahal-52);}.cls-47_taj-mahal-52{fill:url(#linear-gradient-56-taj-mahal-52);}.cls-48_taj-mahal-52{fill:url(#linear-gradient-53-taj-mahal-52);}.cls-49_taj-mahal-52{fill:url(#linear-gradient-51-taj-mahal-52);}.cls-50_taj-mahal-52{fill:url(#linear-gradient-52-taj-mahal-52);}.cls-51_taj-mahal-52{fill:url(#linear-gradient-50-taj-mahal-52);}.cls-52_taj-mahal-52{fill:url(#linear-gradient-54-taj-mahal-52);}.cls-53_taj-mahal-52{fill:url(#linear-gradient-60-taj-mahal-52);}.cls-54_taj-mahal-52{fill:url(#linear-gradient-61-taj-mahal-52);}.cls-55_taj-mahal-52{fill:url(#linear-gradient-62-taj-mahal-52);}.cls-56_taj-mahal-52{fill:url(#linear-gradient-65-taj-mahal-52);}.cls-57_taj-mahal-52{fill:url(#linear-gradient-79-taj-mahal-52);}.cls-58_taj-mahal-52{fill:url(#linear-gradient-78-taj-mahal-52);}.cls-59_taj-mahal-52{fill:url(#linear-gradient-77-taj-mahal-52);}.cls-60_taj-mahal-52{fill:url(#linear-gradient-75-taj-mahal-52);}.cls-61_taj-mahal-52{fill:url(#linear-gradient-76-taj-mahal-52);}.cls-62_taj-mahal-52{fill:url(#linear-gradient-74-taj-mahal-52);}.cls-63_taj-mahal-52{fill:url(#linear-gradient-67-taj-mahal-52);}.cls-64_taj-mahal-52{fill:url(#linear-gradient-68-taj-mahal-52);}.cls-65_taj-mahal-52{fill:url(#linear-gradient-66-taj-mahal-52);}.cls-66_taj-mahal-52{fill:url(#linear-gradient-63-taj-mahal-52);}.cls-67_taj-mahal-52{fill:url(#linear-gradient-69-taj-mahal-52);}.cls-68_taj-mahal-52{fill:url(#linear-gradient-64-taj-mahal-52);}.cls-69_taj-mahal-52{fill:url(#linear-gradient-71-taj-mahal-52);}.cls-70_taj-mahal-52{fill:url(#linear-gradient-72-taj-mahal-52);}.cls-71_taj-mahal-52{fill:url(#linear-gradient-70-taj-mahal-52);}.cls-72_taj-mahal-52{fill:url(#linear-gradient-73-taj-mahal-52);}.cls-73_taj-mahal-52{fill:url(#linear-gradient-82-taj-mahal-52);}.cls-74_taj-mahal-52{fill:url(#linear-gradient-80-taj-mahal-52);}.cls-75_taj-mahal-52{fill:url(#linear-gradient-81-taj-mahal-52);}.cls-76_taj-mahal-52{opacity:.4;}.cls-77_taj-mahal-52{fill:url(#linear-gradient-4-taj-mahal-52);}.cls-78_taj-mahal-52{fill:url(#linear-gradient-2-taj-mahal-52);}.cls-79_taj-mahal-52{fill:url(#linear-gradient-3-taj-mahal-52);}.cls-80_taj-mahal-52{fill:url(#linear-gradient-8-taj-mahal-52);}.cls-81_taj-mahal-52{fill:url(#linear-gradient-9-taj-mahal-52);}.cls-82_taj-mahal-52{fill:url(#linear-gradient-7-taj-mahal-52);}.cls-83_taj-mahal-52{fill:url(#linear-gradient-5-taj-mahal-52);}.cls-84_taj-mahal-52{fill:url(#linear-gradient-6-taj-mahal-52);}.cls-86_taj-mahal-52{opacity:.56;}</style><linearGradient id="linear-gradient-taj-mahal-52" x1="-1078.55" y1="2660.12" x2="-1278.05" y2="2494.15" gradientTransform="translate(1289 3001.72) scale(1 -1)" gradientUnits="userSpaceOnUse"><stop offset="0" stop-color="#231f20" stop-opacity="0"/><stop offset="1" stop-color="#231f20"/></linearGradient><linearGradient id="linear-gradient-2-taj-mahal-52" x1="-1126.17" y1="2621.39" x2="-889" y2="2624.33" gradientTransform="translate(1225.28 2997.49) scale(1 -1)" xlink:href="#linear-gradient-taj-mahal-52"/><linearGradient id="linear-gradient-3-taj-mahal-52" x1="-1032.99" y1="2694.93" x2="-1125.02" y2="2648.58" gradientTransform="translate(1225.28 2997.49) scale(1 -1)" xlink:href="#linear-gradient-taj-mahal-52"/><linearGradient id="linear-gradient-4-taj-mahal-52" x1="-955.86" y1="2710.75" x2="-1132.42" y2="2625.11" gradientTransform="translate(1225.28 2997.49) scale(1 -1)" xlink:href="#linear-gradient-taj-mahal-52"/><linearGradient id="linear-gradient-5-taj-mahal-52" x1="-1053.97" y1="2695.57" x2="-1055.73" y2="2636.71" xlink:href="#linear-gradient-taj-mahal-52"/><linearGradient id="linear-gradient-6-taj-mahal-52" x1="-1051" y1="2669.9" x2="-1054.53" y2="2556.03" gradientTransform="translate(1225.28 2997.49) scale(1 -1)" xlink:href="#linear-gradient-taj-mahal-52"/><linearGradient id="linear-gradient-7-taj-mahal-52" x1="-1051" y1="2669.9" x2="-1054.53" y2="2556.03" gradientTransform="translate(1225.28 2997.49) scale(1 -1)" xlink:href="#linear-gradient-taj-mahal-52"/><linearGradient id="linear-gradient-8-taj-mahal-52" x1="-1083.79" y1="2670.91" x2="-1087.32" y2="2557.04" gradientTransform="translate(1225.28 2997.49) scale(1 -1)" xlink:href="#linear-gradient-taj-mahal-52"/><linearGradient id="linear-gradient-9-taj-mahal-52" x1="-1117.21" y1="2622.38" x2="-987.74" y2="2539.99" gradientTransform="translate(1225.28 2997.49) scale(1 -1)" xlink:href="#linear-gradient-taj-mahal-52"/><linearGradient id="linear-gradient-10-taj-mahal-52" x1="-1117.21" y1="2622.38" x2="-987.74" y2="2539.99" gradientTransform="translate(1225.28 2997.49) scale(1 -1)" xlink:href="#linear-gradient-taj-mahal-52"/><linearGradient id="linear-gradient-11-taj-mahal-52" x1="-1108.35" y1="2636.31" x2="-978.87" y2="2553.92" gradientTransform="translate(1225.28 2997.49) scale(1 -1)" xlink:href="#linear-gradient-taj-mahal-52"/><linearGradient id="linear-gradient-12-taj-mahal-52" x1="-1116.76" y1="2676.04" x2="-1116.02" y2="2693.99" xlink:href="#linear-gradient-taj-mahal-52"/><linearGradient id="linear-gradient-13-taj-mahal-52" x1="-1073.27" y1="2668.1" x2="-1048.85" y2="2671.48" gradientTransform="translate(1225.28 2997.49) scale(1 -1)" xlink:href="#linear-gradient-taj-mahal-52"/><linearGradient id="linear-gradient-14-taj-mahal-52" x1="-1061.5" y1="2678.78" x2="-1060.26" y2="2622.07" gradientTransform="translate(1225.28 2997.49) scale(1 -1)" xlink:href="#linear-gradient-taj-mahal-52"/><linearGradient id="linear-gradient-15-taj-mahal-52" x1="-1053.23" y1="2686.28" x2="-1053.23" y2="2642.14" gradientTransform="translate(1225.28 2997.49) scale(1 -1)" xlink:href="#linear-gradient-taj-mahal-52"/><linearGradient id="linear-gradient-16-taj-mahal-52" x1="-1051.99" y1="2678.99" x2="-1050.74" y2="2622.27" gradientTransform="translate(1225.28 2997.49) scale(1 -1)" xlink:href="#linear-gradient-taj-mahal-52"/><linearGradient id="linear-gradient-17-taj-mahal-52" x1="-1055.26" y1="2665.38" x2="-1033.77" y2="2672.45" gradientTransform="translate(1225.28 2997.49) scale(1 -1)" xlink:href="#linear-gradient-taj-mahal-52"/><linearGradient id="linear-gradient-18-taj-mahal-52" x1="-1061.5" y1="2678.78" x2="-1060.26" y2="2622.07" gradientTransform="translate(1225.28 2997.49) scale(1 -1)" xlink:href="#linear-gradient-taj-mahal-52"/><linearGradient id="linear-gradient-19-taj-mahal-52" x1="-1051.99" y1="2678.99" x2="-1050.74" y2="2622.27" gradientTransform="translate(1225.28 2997.49) scale(1 -1)" xlink:href="#linear-gradient-taj-mahal-52"/><linearGradient id="linear-gradient-20-taj-mahal-52" x1="-1042.42" y1="2679.2" x2="-1041.17" y2="2622.48" gradientTransform="translate(1225.28 2997.49) scale(1 -1)" xlink:href="#linear-gradient-taj-mahal-52"/><linearGradient id="linear-gradient-21-taj-mahal-52" x1="-1116.42" y1="2676.98" x2="-1116.42" y2="2620.93" xlink:href="#linear-gradient-taj-mahal-52"/><linearGradient id="linear-gradient-22-taj-mahal-52" x1="-1158.34" y1="2631.33" x2="-1201.3" y2="2629.27" xlink:href="#linear-gradient-taj-mahal-52"/><linearGradient id="linear-gradient-23-taj-mahal-52" x1="-1104.3" y1="2678.9" x2="-1126.14" y2="2678.02" gradientTransform="translate(1225.28 2997.49) scale(1 -1)" xlink:href="#linear-gradient-taj-mahal-52"/><linearGradient id="linear-gradient-24-taj-mahal-52" x1="-1167.78" y1="2674.06" x2="-1191.9" y2="2673.92" xlink:href="#linear-gradient-taj-mahal-52"/><linearGradient id="linear-gradient-25-taj-mahal-52" x1="-1111.97" y1="2677.3" x2="-1113.84" y2="2651.36" gradientTransform="translate(1225.28 2997.49) scale(1 -1)" xlink:href="#linear-gradient-taj-mahal-52"/><linearGradient id="linear-gradient-26-taj-mahal-52" x1="-1107.37" y1="2676.96" x2="-1109.25" y2="2651.03" gradientTransform="translate(1225.28 2997.49) scale(1 -1)" xlink:href="#linear-gradient-taj-mahal-52"/><linearGradient id="linear-gradient-27-taj-mahal-52" x1="-1111.97" y1="2677.3" x2="-1113.84" y2="2651.36" gradientTransform="translate(1225.28 2997.49) scale(1 -1)" xlink:href="#linear-gradient-taj-mahal-52"/><linearGradient id="linear-gradient-28-taj-mahal-52" x1="-1107.37" y1="2676.96" x2="-1109.25" y2="2651.03" gradientTransform="translate(1225.28 2997.49) scale(1 -1)" xlink:href="#linear-gradient-taj-mahal-52"/><linearGradient id="linear-gradient-29-taj-mahal-52" x1="-1102.79" y1="2676.63" x2="-1104.66" y2="2650.7" gradientTransform="translate(1225.28 2997.49) scale(1 -1)" xlink:href="#linear-gradient-taj-mahal-52"/><linearGradient id="linear-gradient-30-taj-mahal-52" x1="-1186.19" y1="2646.14" x2="-1256.23" y2="2644.97" xlink:href="#linear-gradient-taj-mahal-52"/><linearGradient id="linear-gradient-31-taj-mahal-52" x1="-1206.78" y1="2682.3" x2="-1208.66" y2="2659.57" xlink:href="#linear-gradient-taj-mahal-52"/><linearGradient id="linear-gradient-32-taj-mahal-52" x1="-1208.15" y1="2649.46" x2="-1206.38" y2="2607.31" xlink:href="#linear-gradient-taj-mahal-52"/><linearGradient id="linear-gradient-33-taj-mahal-52" x1="-1136.97" y1="2715.03" x2="-1165.07" y2="2710.77" gradientTransform="translate(1225.28 2997.49) scale(1 -1)" xlink:href="#linear-gradient-taj-mahal-52"/><linearGradient id="linear-gradient-34-taj-mahal-52" x1="-1148.65" y1="2717.76" x2="-1151.08" y2="2656.85" gradientTransform="translate(1225.28 2997.49) scale(1 -1)" xlink:href="#linear-gradient-taj-mahal-52"/><linearGradient id="linear-gradient-35-taj-mahal-52" x1="-1142.22" y1="2717.5" x2="-1144.65" y2="2656.59" gradientTransform="translate(1225.28 2997.49) scale(1 -1)" xlink:href="#linear-gradient-taj-mahal-52"/><linearGradient id="linear-gradient-36-taj-mahal-52" x1="-1148.65" y1="2717.76" x2="-1151.08" y2="2656.85" gradientTransform="translate(1225.28 2997.49) scale(1 -1)" xlink:href="#linear-gradient-taj-mahal-52"/><linearGradient id="linear-gradient-37-taj-mahal-52" x1="-1142.22" y1="2717.5" x2="-1144.65" y2="2656.59" gradientTransform="translate(1225.28 2997.49) scale(1 -1)" xlink:href="#linear-gradient-taj-mahal-52"/><linearGradient id="linear-gradient-38-taj-mahal-52" x1="-1135.77" y1="2717.25" x2="-1138.2" y2="2656.34" gradientTransform="translate(1225.28 2997.49) scale(1 -1)" xlink:href="#linear-gradient-taj-mahal-52"/><linearGradient id="linear-gradient-39-taj-mahal-52" x1="-1205.9" y1="2727.87" x2="-1209.15" y2="2652.25" xlink:href="#linear-gradient-taj-mahal-52"/><linearGradient id="linear-gradient-40-taj-mahal-52" x1="-1205.38" y1="2727.85" x2="-1208.61" y2="2652.22" xlink:href="#linear-gradient-taj-mahal-52"/><linearGradient id="linear-gradient-41-taj-mahal-52" x1="-1052.58" y1="2685.92" x2="-1059.21" y2="2502.74" xlink:href="#linear-gradient-taj-mahal-52"/><linearGradient id="linear-gradient-42-taj-mahal-52" x1="-988.7" y1="2662.47" x2="-993.56" y2="2544.62" gradientTransform="translate(1225.28 2997.49) scale(1 -1)" xlink:href="#linear-gradient-taj-mahal-52"/><linearGradient id="linear-gradient-43-taj-mahal-52" x1="-998.92" y1="2615" x2="-949.33" y2="2618.68" gradientTransform="translate(1225.28 2997.49) scale(1 -1)" xlink:href="#linear-gradient-taj-mahal-52"/><linearGradient id="linear-gradient-44-taj-mahal-52" x1="4249.72" y1="2655.87" x2="4050.22" y2="2489.91" gradientTransform="translate(4510.66 2997.49) rotate(-180)" xlink:href="#linear-gradient-taj-mahal-52"/><linearGradient id="linear-gradient-45-taj-mahal-52" x1="4138.39" y1="2621.38" x2="4375.56" y2="2624.32" gradientTransform="translate(4510.66 2997.49) rotate(-180)" xlink:href="#linear-gradient-taj-mahal-52"/><linearGradient id="linear-gradient-46-taj-mahal-52" x1="4231.57" y1="2694.91" x2="4139.54" y2="2648.56" gradientTransform="translate(4510.67 2997.49) rotate(-180)" xlink:href="#linear-gradient-taj-mahal-52"/><linearGradient id="linear-gradient-47-taj-mahal-52" x1="4213.56" y1="2669.88" x2="4210.03" y2="2556" gradientTransform="translate(4510.67 2997.49) rotate(-180)" xlink:href="#linear-gradient-taj-mahal-52"/><linearGradient id="linear-gradient-48-taj-mahal-52" x1="4213.56" y1="2669.88" x2="4210.03" y2="2556" gradientTransform="translate(4510.67 2997.49) rotate(-180)" xlink:href="#linear-gradient-taj-mahal-52"/><linearGradient id="linear-gradient-49-taj-mahal-52" x1="4180.77" y1="2670.9" x2="4177.25" y2="2557.03" gradientTransform="translate(4510.67 2997.49) rotate(-180)" xlink:href="#linear-gradient-taj-mahal-52"/><linearGradient id="linear-gradient-50-taj-mahal-52" x1="4147.36" y1="2622.39" x2="4276.84" y2="2539.99" gradientTransform="translate(4510.67 2997.49) rotate(-180)" xlink:href="#linear-gradient-taj-mahal-52"/><linearGradient id="linear-gradient-51-taj-mahal-52" x1="4147.36" y1="2622.39" x2="4276.84" y2="2539.99" gradientTransform="translate(4510.67 2997.49) rotate(-180)" xlink:href="#linear-gradient-taj-mahal-52"/><linearGradient id="linear-gradient-52-taj-mahal-52" x1="4156.19" y1="2636.26" x2="4285.67" y2="2553.87" gradientTransform="translate(4510.67 2997.49) rotate(-180)" xlink:href="#linear-gradient-taj-mahal-52"/><linearGradient id="linear-gradient-53-taj-mahal-52" x1="4211.53" y1="2671.79" x2="4212.26" y2="2689.74" gradientTransform="translate(4510.66 2997.49) rotate(-180)" xlink:href="#linear-gradient-taj-mahal-52"/><linearGradient id="linear-gradient-54-taj-mahal-52" x1="4191.3" y1="2668.08" x2="4215.71" y2="2671.47" gradientTransform="translate(4510.67 2997.49) rotate(-180)" xlink:href="#linear-gradient-taj-mahal-52"/><linearGradient id="linear-gradient-55-taj-mahal-52" x1="4203.02" y1="2678.77" x2="4204.27" y2="2622.04" gradientTransform="translate(4510.67 2997.49) rotate(-180)" xlink:href="#linear-gradient-taj-mahal-52"/><linearGradient id="linear-gradient-56-taj-mahal-52" x1="4211.35" y1="2686.26" x2="4211.35" y2="2642.13" gradientTransform="translate(4510.67 2997.49) rotate(-180)" xlink:href="#linear-gradient-taj-mahal-52"/><linearGradient id="linear-gradient-57-taj-mahal-52" x1="4212.56" y1="2678.98" x2="4213.81" y2="2622.26" gradientTransform="translate(4510.67 2997.49) rotate(-180)" xlink:href="#linear-gradient-taj-mahal-52"/><linearGradient id="linear-gradient-58-taj-mahal-52" x1="4209.3" y1="2665.38" x2="4230.79" y2="2672.43" gradientTransform="translate(4510.67 2997.49) rotate(-180)" xlink:href="#linear-gradient-taj-mahal-52"/><linearGradient id="linear-gradient-59-taj-mahal-52" x1="4203.02" y1="2678.77" x2="4204.27" y2="2622.04" gradientTransform="translate(4510.67 2997.49) rotate(-180)" xlink:href="#linear-gradient-taj-mahal-52"/><linearGradient id="linear-gradient-60-taj-mahal-52" x1="4212.56" y1="2678.98" x2="4213.81" y2="2622.26" gradientTransform="translate(4510.67 2997.49) rotate(-180)" xlink:href="#linear-gradient-taj-mahal-52"/><linearGradient id="linear-gradient-61-taj-mahal-52" x1="4222.14" y1="2679.18" x2="4223.39" y2="2622.47" gradientTransform="translate(4510.67 2997.49) rotate(-180)" xlink:href="#linear-gradient-taj-mahal-52"/><linearGradient id="linear-gradient-62-taj-mahal-52" x1="4211.85" y1="2672.73" x2="4211.85" y2="2616.68" gradientTransform="translate(4510.66 2997.49) rotate(-180)" xlink:href="#linear-gradient-taj-mahal-52"/><linearGradient id="linear-gradient-63-taj-mahal-52" x1="4169.94" y1="2627.09" x2="4126.97" y2="2625.04" gradientTransform="translate(4510.66 2997.49) rotate(-180)" xlink:href="#linear-gradient-taj-mahal-52"/><linearGradient id="linear-gradient-64-taj-mahal-52" x1="4160.27" y1="2678.88" x2="4138.42" y2="2678" gradientTransform="translate(4510.67 2997.49) rotate(-180)" xlink:href="#linear-gradient-taj-mahal-52"/><linearGradient id="linear-gradient-65-taj-mahal-52" x1="4160.5" y1="2669.81" x2="4136.38" y2="2669.67" gradientTransform="translate(4510.66 2997.48) rotate(-180)" xlink:href="#linear-gradient-taj-mahal-52"/><linearGradient id="linear-gradient-66-taj-mahal-52" x1="4152.6" y1="2677.28" x2="4150.73" y2="2651.35" gradientTransform="translate(4510.67 2997.49) rotate(-180)" xlink:href="#linear-gradient-taj-mahal-52"/><linearGradient id="linear-gradient-67-taj-mahal-52" x1="4157.19" y1="2676.95" x2="4155.31" y2="2651.02" gradientTransform="translate(4510.67 2997.49) rotate(-180)" xlink:href="#linear-gradient-taj-mahal-52"/><linearGradient id="linear-gradient-68-taj-mahal-52" x1="4152.6" y1="2677.28" x2="4150.73" y2="2651.35" gradientTransform="translate(4510.67 2997.49) rotate(-180)" xlink:href="#linear-gradient-taj-mahal-52"/><linearGradient id="linear-gradient-69-taj-mahal-52" x1="4157.19" y1="2676.95" x2="4155.31" y2="2651.02" gradientTransform="translate(4510.67 2997.49) rotate(-180)" xlink:href="#linear-gradient-taj-mahal-52"/><linearGradient id="linear-gradient-70-taj-mahal-52" x1="4161.78" y1="2676.62" x2="4159.91" y2="2650.69" gradientTransform="translate(4510.67 2997.49) rotate(-180)" xlink:href="#linear-gradient-taj-mahal-52"/><linearGradient id="linear-gradient-71-taj-mahal-52" x1="4142.09" y1="2641.9" x2="4072.06" y2="2640.72" gradientTransform="translate(4510.66 2997.49) rotate(-180)" xlink:href="#linear-gradient-taj-mahal-52"/><linearGradient id="linear-gradient-72-taj-mahal-52" x1="4121.49" y1="2678.05" x2="4119.61" y2="2655.32" gradientTransform="translate(4510.66 2997.49) rotate(-180)" xlink:href="#linear-gradient-taj-mahal-52"/><linearGradient id="linear-gradient-73-taj-mahal-52" x1="4120.13" y1="2645.21" x2="4121.9" y2="2603.06" gradientTransform="translate(4510.66 2997.49) rotate(-180)" xlink:href="#linear-gradient-taj-mahal-52"/><linearGradient id="linear-gradient-74-taj-mahal-52" x1="4127.59" y1="2715.01" x2="4099.48" y2="2710.74" gradientTransform="translate(4510.67 2997.49) rotate(-180)" xlink:href="#linear-gradient-taj-mahal-52"/><linearGradient id="linear-gradient-75-taj-mahal-52" x1="4115.93" y1="2717.75" x2="4113.51" y2="2656.84" gradientTransform="translate(4510.67 2997.49) rotate(-180)" xlink:href="#linear-gradient-taj-mahal-52"/><linearGradient id="linear-gradient-76-taj-mahal-52" x1="4122.35" y1="2717.49" x2="4119.92" y2="2656.58" gradientTransform="translate(4510.67 2997.49) rotate(-180)" xlink:href="#linear-gradient-taj-mahal-52"/><linearGradient id="linear-gradient-77-taj-mahal-52" x1="4115.93" y1="2717.75" x2="4113.51" y2="2656.84" gradientTransform="translate(4510.67 2997.49) rotate(-180)" xlink:href="#linear-gradient-taj-mahal-52"/><linearGradient id="linear-gradient-78-taj-mahal-52" x1="4122.35" y1="2717.49" x2="4119.92" y2="2656.58" gradientTransform="translate(4510.67 2997.49) rotate(-180)" xlink:href="#linear-gradient-taj-mahal-52"/><linearGradient id="linear-gradient-79-taj-mahal-52" x1="4128.76" y1="2717.23" x2="4126.33" y2="2656.32" gradientTransform="translate(4510.67 2997.49) rotate(-180)" xlink:href="#linear-gradient-taj-mahal-52"/><linearGradient id="linear-gradient-80-taj-mahal-52" x1="4122.39" y1="2723.62" x2="4119.14" y2="2648" gradientTransform="translate(4510.67 2997.49) rotate(-180)" xlink:href="#linear-gradient-taj-mahal-52"/><linearGradient id="linear-gradient-81-taj-mahal-52" x1="4122.92" y1="2723.6" x2="4119.67" y2="2647.98" gradientTransform="translate(4510.67 2997.49) rotate(-180)" xlink:href="#linear-gradient-taj-mahal-52"/><linearGradient id="linear-gradient-82-taj-mahal-52" x1="-1052.95" y1="2622.88" x2="-1057.06" y2="2517.83" xlink:href="#linear-gradient-taj-mahal-52"/></defs><g id="background_taj-mahal-52"><path class="cls-1_taj-mahal-52 targetColor" d="M182.23,116.49c.12.23.25.44.37.64-3.63,1.03-5.58,3.67-7.15,6.64-.15.23-.35.41-.59.53-2.48,1.67-4.27,3.61-2.67,7.06-1.87.89-3.81,1.63-5.8,2.2-.52.1-1.02.29-1.48.56,4.04-5.3,7.06-13.04,12.38-16.61.95-.64,1.96-1.19,3.02-1.63.71.25,1.32.44,1.91.62Z" style="fill: rgb(200, 0, 217);"/><path class="cls-1_taj-mahal-52 targetColor" d="M372.29,199.39c-3.54,1.88-4.54-1.07-6.24-2.63,2.13.82,4.21,1.69,6.24,2.63Z" style="fill: rgb(200, 0, 217);"/><path class="cls-76_taj-mahal-52 targetColor" d="M195.59,24.25c.89,1.13,1.92,2.27,2.86,3.4,1.38,1.98,2.88,3.87,4.48,5.67.71.76,2.16.82,3.29,1.13l.59-.78c.39,1.03.76,2.03,1.13,3.1,3.6.19,4.36,1.13,3.6,4.83-.4,2.16,2.13,3.73,4.71,2.88,3.73-1.28,4.92-.41,4.67,4.2,1.59-.08,3.16-.37,4.67-.84,3.35-1.54,6.51-3.52,9.87-5.05,1.32-.45,2.74-.53,4.11-.25,1.57.22,3.2,1.57,3.89-1.26.12-.43,2.1-.81,3.04-.56s1.78,1.37,2.69,2.07c1.23.94,2.45,2.07,3.29.57,1.61,1.12,3.11,2.4,4.46,3.82.73,1.24,1,2.69.78,4.11-.25,1.6-1.32,3.07-1.76,4.67-.24.87-.15,1.79.25,2.6,1.23,1.91.22,2.27-1.41,2.47-.85.09-1.69.12-2.51.19-.12,1.53-.25,2.79-.41,4.45-.52-.35-1.06-.65-1.63-.91-.66-.29-1.39-.37-2.1-.22-.37.18-.47,1.13-.5,1.85,0,.87.31,1.75.25,2.6-.22,3.01-1.79,3.79-4.39,2.35-2.17-1.13-3.51-.71-4.45,1.76.37.16.75.34,1.13.5s.66.22,1.19.41c-.53,1.79.28,4.23-2.95,4.39.35,1.44.69,2.88.94,4.02,1.51.12,2.79.31,4.05.37,2.16,0,3.63.41,2.07,3.04-.17.71,0,1.46.47,2.03,2.13,2.27,2.38,4.14.78,7.09-2.03-1.03-3.4.18-4.79,1.37-1.07.92-2.27,1.7-3.27,2.42-.71-1.48-1.21-2.54-1.91-3.98.06-.41.28-1.35.53-2.56-4.05,1.6-5.02,4.32-4.54,7.86,3.4.1,4.96,2.27,4.11,5.49,0,.16-.18.37-.12.5,1.23,2.07,1.23,3.95-.82,5.58.15.62.46,1.19.89,1.66.8.77,1.64,1.49,2.51,2.17.71-1.23,1.48-2.54,2.56-4.36,1.01,1.64,1.92,3.33,2.73,5.07,1.13,3.07,2.01,3.52,5.2,3.11,1.29-.08,2.55.38,3.48,1.26,1.54,1.53,4.89,1.91,3.82,4.86l3.7,2.27c1.38-.78,2.92-.84,4.18,1.51.5.98,2.19,1.35,3.4,2.04-2.27,1.78-4.11,3.22-5.96,4.66-.16-.16-.32-.28-.44-.41-.09.76-.16,1.51-.25,2.38-.91.1-1.76.16-2.88.25-.78,3.4-1.53,6.81-2.45,10.21-.27.98.32,2.7-1.69,2.67,0,.57-.22,1.44.07,1.67,1.65,1.22,3.38,2.33,5.17,3.32.22.12.87-.57,1.72-1.13.06,3.7,2.92,3.4,5.2,3.91,2.7.66,5.53,1.23,5.53,4.3,2.63,1.76,4.91,3.32,7.24,4.89,0-.19,0-.34.06-.5,1.23.04,2.45.2,3.64.5,1.32.47,2.42,1.51,3.73,2.01,1.18.39,2.45.36,3.61-.07.15.1.37.16.43.28,1.32,2.79,2.98,4.92,6.62,4.14.64-.12,1.51.69,2.48,1.13.56-.78,1.13-1.63,1.72-2.38,1.53.32,3.06.62,4.54.94,1.26-2.76,2.17-3.04,4.71-1.66.62.34,1.21.96,1.85,1,2.72.09,4.07,1.38,4.54,4.11.16.94,1.58,1.78,2.58,2.38,1.6.98,3.32,1.66,5.67,2.79l4.67-1.26c.69,1.29,1.41,2.67,2.16,4.08l6.43-1.04c2.35,3.61,4.54,3.7,9.21.19.48,2.85,2.01,3.32,4.67,2.63,1.85-.5,3.98.5,5.8-.98.19-.15,1.07.53,1.67.85,2.49-2.18,2.97-5.87,1.13-8.62-1.13-1.57-1.91-2.85-.98-4.77.28-.57-.18-1.41-.06-2.1.37-2.07.87-4.16,1.48-6.9-.19-.25-.78-1.03-1.29-1.72,1.79-1,3.32-1.72,4.74-2.63,1.13-.75,2.01-1.44,3.54-.5,1.53.94,2.83,1.85,2.58,3.82-.14.94-.69,1.82-.82,2.76-.07,1.1-.03,2.2.12,3.29.06.66.43,1.38.25,1.95-.82,2.44,1,3.79,2.27,5.26.78.94,2.16,1.41,3.57,2.27l1.72-1.94c1.01.93,2.1,1.76,3.26,2.51.75.36,1.6.4,2.38.12,2.7-1.13,5.33-2.41,8.22-3.76,1.32,2.6,3.98,1.97,6.03,1.35,2.53-.79,5.57.59,7.7-1.76,2.83,1.97,5.3-3.77,8.22.31.15-.27.29-.55.41-.84-.42-.76-.75-1.56-1-2.38-.25-1.13-.73-2.54-.28-3.4.84-1.82-.16-2.6-1.38-3.11-1.82-.63-3.67-1.17-5.55-1.6-.16-1.57-.34-3.19-.56-5.17.82.64,1.74,1.14,2.72,1.48,1.07.19,2.72.32,3.23-.28,1.59-2,3.17-1.82,5.04-.27,1.26-1.35,3.4-2.77,3.27-3.73-.41-2.17.71-2.58,2.01-3.4s2.56-1.87,4.04-2.97c-.57-3.61.91-5.02,5.14-5.37,1.92-.24,3.69-1.17,4.99-2.6,2.6-2.97,4.7-6.37,6.55-8.93,3.2,1.25,5.67,2.27,8.02,3.17,2.01.78,3.68.18,4.39-1.72,1.13-3.07,4.3-3.14,6.37-4.8.28-.22,1.28.28,1.82.62.82.57,1.54,1.28,2.79,2.27l-3.01,4.91c.25.16.5.35.73.51.56-.73,1.07-1.44,1.66-2.11,1.13-1.28,2.19-1.13,2.79.48.69,1.92,1.03,3.86-.53,5.67-.78,1.07-1.47,2.21-2.04,3.4.78.28,1.13.6,1.42.5,2.42-.96,4.66-1.46,7.33-.18,1.51.75,3.57.34,5.24.47.31,1.57.53,2.67.78,3.73s.69,1.92-1.07,2.51c-1.45.67-2.64,1.8-3.4,3.2-.37,1.01-.37,2.12,0,3.13.19.69,1.13,1.13,1.48,1.83.45,1.14.79,2.31,1.03,3.51-1.32-.34-3.13-.28-3.86-1.13-1.69-1.95-2.88-1.35-4.98-.69-5.02,1.6-7.15,6.4-11.1,9.16-1.48,1-2.58,2.88-4.39,3.91-.94.93-1.33,2.28-1.03,3.57,2.01,3.98.66,7.81-.25,11.6-.28,1.19-1.57,2.27-2.58,3.18-2.27,2.12-2.35,3.51-.66,6.08.42,1.08.4,2.28-.06,3.35-1.42,3.98-3.11,7.84-4.54,11.82-.32,1.27-.51,2.58-.57,3.89-1.53-.6-2.6-.98-3.63-1.42-1.54-.66-2.92-1.6-4.46.23-.34.4-1.91-.28-3.17-.51,3.07,2.83,2.61,6.24,1.67,9.85-.19.73.5,1.63.59,2.51.19,1.92.5,3.73-2.41,4.23-2.52.44-1.63,2.7-1.29,4.39.5,2.38,1.06,4.77,1.69,7.15.82,3.17-1.21,5.42-2.53,8.84-.85-1.37-1.35-2.27-2.01-3.4-.73,1.26-1.13,1.95-1.51,2.64-.31-.1-.62-.14-.62-.19-.22-2.85-.25-5.76-.73-8.59-.51-2.2-1.22-4.35-2.1-6.43-.22-.56-1.07-1.25-.94-1.5,2.27-3.93-1.78-6.52-2.07-9.97-.25-3.22-.82-3.2-4.54-2.72-.61,1.71-1.12,3.46-1.53,5.23-.12,1.14-.06,2.29.18,3.4.19,1.57.23,3.17-1.62,3.7s-2.42-.78-2.83-2.27c-.28-.8-.8-1.49-1.48-2v3.01l-.75.12c-.22-.82-.48-1.63-.73-2.45-.58-2.24-1.31-4.44-2.19-6.58-1.32-2.72,1-7.61,4.07-8.22.53-.12,1.01-.66,1.54-.91,1.13-.57,2.35-1.13,3.97-1.88,0-.28.14-1.32.23-2.51,3.98-.22,2.07-4.45,4.11-6.33-.5-.07-1.01-.12-2.27-.25,1.57-.91,2.56-1.48,4.41-2.51l-3.1-.6c-1.32-.28-2.79-1.13-3.91-.75-3.11,1.03-5.97-.34-8.94-.41-2.76,0-5.51.73-8.27.82-2.45.09-4.87-.22-7.31-.32-.98-.06-1.95-.12-2.88-.09-1.63.09-2.38-.73-1.51-2.04.97-1.06.9-2.7-.16-3.67-.02-.02-.04-.03-.06-.05-.22-.38-.33-.82-.32-1.26-.32-2.7-.66-5.36-.98-8.06-.37,0-.75-.09-1.13-.16-.24.44-.46.89-.66,1.35-.32.94-.57,1.88-.85,2.79-1.16-.28-2.26-.74-3.26-1.38-1.48-1.32-2.61-2.97-3.95-4.41-.28-.28-.89-.28-1.97-.57.81,1.13,1.25,1.66,1.85,2.47-1.04,0-1.92.1-3.07.16.41.75.75,1.35,1.19,2.13-.48,0-.82.09-.91,0-.64-.78-1.18-1.64-1.6-2.56-.76-2.13-2.33-2.7-4.11-3.11-.12.21-.26.41-.41.6l2.51,1.78c-.82.48-1.67.69-2.1,1.26-1.12,1.33-2.05,2.81-2.79,4.38-.89,2.04.57,3.02,2.16,4.02.19.11.37.25.53.41,1.72,1.57,2.7,4.54,6.24,2.63h0c13.39,6.21,24.61,15.36,30.35,28.88,5.05,11.88,4.86,25.24,7.21,37.93,2.53,13.59,7.95,26.47,15.89,37.78,9.94,14.14,23.93,25.96,29.35,42.39,7.33,22.25-3.73,47.37-21.32,62.83-17.59,15.45-40.58,23.2-63.14,29.59-33.11,9.44-66.76,16.84-100.78,22.14-18.46,2.85-37.15,5.11-55.84,4.14-15.89-.82-31.6-3.98-47.21-7.15-19.47-3.93-38.93-7.86-58.38-11.79-18.35-3.7-37.63-7.84-51.71-20.2-12.41-10.88-19.15-26.71-25.48-41.98-4.7-11.35-9.46-23.07-9.91-35.37-.37-10.94,2.72-21.63,4.07-32.47,2.27-17.5,0-35.3,1.92-52.83,4.36-38.07,29.91-72.48,64.11-89.8,16.02-8.09,33.64-12.7,49.61-20.95,8.45-4.17,16.08-9.82,22.53-16.68l.07-.06c.43-.5.87-1.07,1.32-1.63.46-.27.95-.46,1.48-.56,1.99-.58,3.93-1.31,5.8-2.2-1.6-3.4.18-5.39,2.67-7.06.24-.12.44-.31.59-.53,1.57-2.97,3.52-5.61,7.15-6.64-.12-.19-.25-.41-.37-.64-.59-.18-1.19-.37-1.91-.62l-.39-.12c1.01-2.42,1.83-4.7-.41-6.93-.27-.31,1.13-3.06,2.33-3.85,2.27-1.54,4.54-3.27,7.65-2.83.97-.22,1.76-.94,2.08-1.88-.04-1.08-.59-2.08-1.48-2.7-2.08-1.03-4.39-1.59-6.52-2.56-.62-.52-.99-1.27-1.01-2.08.11-1.04.35-2.06.69-3.04-3.04,1.7-5.39.41-7.68-1.06-1.45-1.12-2.99-2.1-4.61-2.95-2.03-.85-2.38-2.27-2.27-4.2,0-2.77-.23-5.53-.35-8.28-.12-.68-.12-1.38,0-2.07.49-1.42.17-3-.84-4.11-.91-1.26-.94-3.17-1.35-4.74l5.58-.71c-1.7-2.95-.48-3.7,1.85-4.05,1.95-.18,3.43-1.83,3.4-3.79.06-1.63-.07-3.29-2.7-2.42-2.27.76-3.29-.53-2.56-2.88.18-.66.37-1.35.5-2.01,0-.18-.25-.43-.44-.75-1.82.87-3.86,2.17-5.42.07-1.05-1.77-1.92-3.64-2.6-5.58-.75.34-1.38.62-2.01.87-2.27.94-3.79.28-4.86-2.1-1.01-2.13-.16-3.13,1.88-4.02,1-.47,1.53-2.01,2.12-3.13.7-.59,1.32-1.28,1.83-2.04,1.13-2.27,5.07-3.63,7.3-2.47,1.07.53,2.2,1.03,3.3,1.53.22-.12.43-.27.66-.4-.41-1.07-.82-2.11-1.29-3.32.25-.1.73-.41,1.01-.28" style="fill: rgb(200, 0, 217);"/><path class="cls-76_taj-mahal-52 targetColor" d="M186.75,23.91c1.35,1.6,2.76.37,4.02-.76" style="fill: rgb(200, 0, 217);"/><path class="cls-76_taj-mahal-52 targetColor" d="M173.63,24.98c3.01,1.13,5.26-.48,7.68-1.83" style="fill: rgb(200, 0, 217);"/><path class="cls-76_taj-mahal-52 targetColor" d="M195.6,24.25c.86,1.21,1.91,2.27,2.83,3.4,1.41,1.97,2.93,3.86,4.54,5.67.74.74,2.17.79,3.29,1.13l.59-.78,1.13,3.07c3.63.19,4.36,1.13,3.63,4.83-.43,2.18,2.12,3.74,4.67,2.88,3.74-1.28,4.94-.41,4.66,4.21,1.58-.1,3.14-.39,4.65-.86,3.4-1.55,6.52-3.54,9.89-5.07,1.32-.43,2.73-.51,4.08-.24,1.57.22,3.21,1.57,3.91-1.26.1-.44,2.09-.82,3.02-.54s1.78,1.38,2.7,2.07c1.21.92,2.46,2.04,3.29.56,1.62,1.1,3.12,2.39,4.45,3.84.74,1.23,1.01,2.67.78,4.08-.24,1.61-1.3,3.09-1.75,4.69-.25.87-.16,1.79.25,2.6,1.24,1.93.24,2.34-1.41,2.48-.84.08-1.69.11-2.5.17-.15,1.53-.27,2.81-.42,4.47-.52-.36-1.06-.67-1.63-.93-.67-.26-1.4-.33-2.11-.2-.37.17-.47,1.2-.48,1.85,0,.86.31,1.75.25,2.61-.23,3-1.79,3.79-4.41,2.34-2.16-1.2-3.49-.7-4.44,1.75.39.17.76.35,1.13.5s.66.23,1.2.41c-.53,1.79.27,4.24-2.96,4.39.34,1.45.68,2.89.95,4.01,1.51.15,2.78.33,4.05.37,2.14.08,3.62.44,2.05,3.07-.18.72,0,1.47.49,2.03,2.1,2.27,2.36,4.13.75,7.09-2.02-1.06-3.4.17-4.78,1.35-1.08.91-2.27,1.69-3.28,2.44l-1.91-4.01.52-2.55c-4.01,1.59-4.99,4.33-4.54,7.85,3.4.1,4.95,2.27,4.11,5.49,0,.17-.2.4-.15.5,1.24,2.09,1.23,3.95-.81,5.61.16.62.46,1.18.89,1.66.79.76,1.63,1.48,2.5,2.16l2.56-4.36c1.02,1.63,1.93,3.32,2.73,5.07,1.13,3.07,2,3.51,5.22,3.1,1.28-.07,2.53.39,3.47,1.26,1.53,1.53,4.9,1.92,3.82,4.88l3.7,2.33c1.4-.79,2.92-.87,4.16,1.49.52.98,2.19,1.34,3.4,2.03l-5.96,4.66-.44-.4-.25,2.39-2.87.24c-.81,3.4-1.54,6.81-2.47,10.21-.26.98.34,2.72-1.68,2.68,0,.58-.22,1.45.06,1.66,1.65,1.22,3.37,2.33,5.16,3.34.23.12.91-.56,1.74-1.13.08,3.71,2.93,3.4,5.21,3.91,2.71.65,5.53,1.24,5.53,4.31l7.25,4.87v-.49c1.23.03,2.46.19,3.65.49,1.3.48,2.41,1.52,3.71,2.01,1.18.4,2.46.38,3.62-.06.16.09.39.15.44.28,1.3,2.8,2.96,4.91,6.59,4.14.66-.14,1.51.67,2.48,1.13l1.72-2.37,4.54.92c1.24-2.75,2.16-3.04,4.71-1.65.61.33,1.21.96,1.84.99,2.73.11,4.07,1.38,4.54,4.13.16.92,1.54,1.78,2.55,2.38,1.6.95,3.34,1.66,5.67,2.78l4.67-1.26,2.18,4.07,6.41-1.04c2.36,3.63,4.54,3.71,9.24.19.47,2.86,2.01,3.34,4.67,2.63,1.84-.48,3.98.51,5.78-.98.19-.15,1.13.56,1.67.87,2.48-2.2,2.96-5.88,1.13-8.65-1.13-1.55-1.91-2.85-.96-4.77.26-.54-.19-1.41-.07-2.08.37-2.1.87-4.16,1.46-6.92l-1.28-1.71c1.79-.99,3.32-1.72,4.74-2.64,1.13-.74,2-1.44,3.53-.5,1.53.94,2.85,1.85,2.59,3.84-.12.94-.71,1.83-.82,2.76-.06,1.1-.02,2.2.12,3.29,0,.66.42,1.38.24,1.95-.81,2.45,1.03,3.79,2.27,5.24.81.95,2.17,1.44,3.59,2.27l1.71-1.95c1.02.92,2.11,1.76,3.26,2.51.75.37,1.62.42,2.41.14,2.7-1.13,5.32-2.42,8.22-3.77,1.3,2.61,3.96,1.96,6.01,1.34,2.54-.77,5.56.61,7.69-1.74,2.84,1.97,5.31-3.77,8.24.31l.4-.84c-.42-.77-.75-1.57-1.01-2.41-.25-1.13-.71-2.53-.28-3.4.85-1.82-.14-2.61-1.35-3.1-1.82-.64-3.68-1.18-5.56-1.61-.17-1.55-.35-3.18-.58-5.15.83.61,1.75,1.1,2.72,1.45,1.07.18,2.75.33,3.22-.26,1.62-2.03,3.18-1.85,5.07-.31,1.24-1.33,3.4-2.76,3.27-3.71-.43-2.18.71-2.6,2-3.4,1.28-.81,2.56-1.87,4.04-2.96-.57-3.6.92-5.02,5.15-5.38,1.91-.25,3.68-1.16,4.98-2.59,2.59-2.97,4.7-6.37,6.55-8.95l8.04,3.19c1.99.78,3.65.19,4.36-1.74,1.13-3.05,4.3-3.14,6.39-4.78.28-.22,1.27.26,1.8.61.97.71,1.9,1.47,2.79,2.27l-3.01,4.91.73.5c.54-.7,1.06-1.44,1.65-2.1,1.13-1.27,2.21-1.13,2.79.47.7,1.93,1.06,3.88-.53,5.67-.77,1.07-1.45,2.21-2.02,3.4.77.3,1.13.6,1.4.51,2.43-.99,4.69-1.48,7.33-.18,1.52.74,3.59.34,5.25.44.32,1.59.52,2.68.78,3.74.26,1.07.69,1.92-1.08,2.5-1.45.68-2.64,1.81-3.4,3.22-.37,1.01-.37,2.11,0,3.12.18.68,1.13,1.13,1.49,1.8.43,1.15.77,2.33,1.03,3.53-1.33-.35-3.14-.28-3.88-1.13-1.67-1.94-2.88-1.33-4.98-.67-5.02,1.58-7.15,6.38-11.1,9.08-1.45,1.01-2.54,2.88-4.39,3.94-.94.93-1.32,2.27-1.01,3.55,2.01,3.99.64,7.81-.25,11.6-.28,1.2-1.6,2.27-2.6,3.19-2.27,2.14-2.33,3.51-.65,6.07.45,1.09.45,2.31,0,3.4-1.43,3.97-3.12,7.85-4.54,11.81-.31,1.28-.5,2.59-.56,3.9-1.54-.6-2.61-.96-3.63-1.42-1.53-.67-2.93-1.59-4.47.24-.32.39-1.89-.28-3.14-.52,3.05,2.81,2.59,6.25,1.65,9.84-.19.73.51,1.66.6,2.51.18,1.93.51,3.73-2.43,4.26-2.47.44-1.6,2.7-1.26,4.37.5,2.39,1.07,4.79,1.68,7.16.81,3.18-1.2,5.44-2.54,8.83l-2-3.34-1.52,2.62c-.31-.08-.6-.11-.61-.18-.24-2.86-.24-5.76-.73-8.59-.52-2.2-1.22-4.35-2.1-6.43-.2-.56-1.07-1.25-.93-1.49,2.27-3.91-1.8-6.52-2.08-9.97-.26-3.25-.81-3.2-4.54-2.76-.61,1.73-1.13,3.48-1.55,5.26-.11,1.11-.05,2.24.18,3.34.22,1.59.23,3.19-1.6,3.71s-2.44-.79-2.85-2.27c-.27-.81-.78-1.52-1.48-2.03v3.01l-.73.15c-.24-.82-.48-1.65-.74-2.45-.58-2.24-1.31-4.44-2.19-6.58-1.3-2.76,1-7.65,4.07-8.24.54-.1,1-.64,1.53-.9,1.13-.58,2.35-1.13,3.99-1.87,0-.3.11-1.32.22-2.53,3.98-.22,2.07-4.45,4.12-6.32l-2.27-.25,4.43-2.52c-1.5-.28-2.27-.43-3.1-.6-1.32-.27-2.8-1.13-3.9-.74-3.13,1.03-5.98-.35-8.94-.4-2.76,0-5.53.7-8.31.81-2.42.1-4.85-.22-7.27-.33-.98,0-1.94-.11-2.92-.07-1.6.08-2.36-.73-1.49-2.04s.92-2.52-.23-3.73c-.26-.28-.24-.84-.3-1.27-.34-2.68-.66-5.36-.99-8.03l-1.13-.16c-.25.44-.47.89-.67,1.35-.32.92-.57,1.86-.85,2.78-1.15-.28-2.24-.74-3.23-1.37-1.48-1.3-2.62-2.98-3.98-4.44-.26-.28-.86-.26-1.95-.56l1.86,2.47-3.09.15,1.13,2.14c-.47,0-.82.09-.9,0-.63-.8-1.17-1.66-1.6-2.59-.75-2.11-2.34-2.7-4.1-3.09l-.42.6,2.5,1.78c-.77.29-1.47.72-2.1,1.25-1.11,1.34-2.04,2.81-2.78,4.38-.87,2.03.57,3.01,2.16,4.03,2.09,1.34,2.9,5.09,6.81,3.04.07.93.12,1.66.2,2.54.3-.05.61-.05.91,0,.61.25,1.19.59,1.79.9-.54.68-.98,1.78-1.66,1.96-1.84.4-3.71.68-5.59.84-.07,1.06-.24,2.1-.5,3.13-.23.61-.71,1.08-1.32,1.3-1.86.28-2.27,1.29-2.08,2.98.21,2.88,2.72,5.05,5.6,4.84.21-.02.42-.04.62-.08.47-.07.96.05,1.34.34,1.48,1.26,1.32,5.51-.18,6.72-1.23,1.32-1.16,3.4.16,4.63.17.16.35.3.55.41,2.04.93,2.39,2.08,1.3,4.13l3.46,1.13c-.2,1.75-.4,3.53-.62,5.31-.49,3.8,1.42,7.03,2.36,10.51.49,1.76.19,3.73.27,5.61.06,1.33.14,2.67.25,4.67-.91-1.13-1.57-1.94-2.27-2.75-.7-.81-1.32-1.45-1.99-2.18-.54.59-1.13,1.13-1.76,1.63-.94.66-1.99,1.2-2.98,1.79-.52-.85-.99-1.72-1.42-2.62-.24-.78-.39-1.58-.47-2.39-.62.68-1.14,1.44-1.54,2.27-1.32,4.73-5.76,5.14-9.26,5.81-1.8.24-3.46,1.11-4.69,2.44-2.2,2.34-2.14,2.86.25,5.12.44.42.84.9,1.13,1.23-.43,2.47-1.08,4.63-3.35,5.97-.35.22,0,1.53,0,2.85-3.18,6.81-10.73,8.02-17.44,10.84-.15-.62-.35-1.51-.69-2.94l-4.69,4.4.34.51,1.55-.36.56.37c-.74,1.01-1.27,2.38-2.27,2.97-3.04,1.98-5.58,4.63-7.43,7.75-1.35,2.02-3.13,3.76-4.61,5.67-.51.84-.94,1.73-1.26,2.66-1.95.94-4.13,1.6-5.76,2.92-1.34,1.17-2.31,2.71-2.79,4.43-.84,2.88-3.74,5.93-6.67,6.46-.82.18-1.59.52-2.27,1.01-1.52,1.01-2.89,2.27-4.44,3.21-1.95,1.2-2.88,2.6-2.27,5.03.85,3.29-.33,4.78-3.4,5.78-3.34,1.13-6.57,1.7-10.01.52-.36-.12-1.29.69-1.61,1.26-1.55,2.77-2.93,5.67-4.47,8.39-.95,1.72-2.02,1.58-3.09-.06-.43-.66-1.59-1.45-2.16-1.29-2.63.65-4.92,2.27-6.41,4.54-3.52,5.16-1.48,10.21-.82,15.36.25,1.94.14,3.49-1.45,4.62.92,1.37,1.75,2.8,2.47,4.28.54,1.63.97,3.3,1.29,4.99l-3.05-1.29-.28.47c.4.3.82.58,1.19.91,1.78,1.54,2.96,3.26,1.88,5.79-.38.8-.54,1.68-.47,2.56.49,2.97-.85,4.91-3.29,6.38,1.63,2.38.19,4.26-1.38,5.57-3.49,2.95-3.56,7.3-2.68,10.52,1.55,5.74-.53,11.35,1.13,16.77-2.61.41-5.19.98-7.73,1.7-.96.33-1.68,1.66-2.27,2.67-.74,1.27-1.19,2.71-1.87,4.03-.23.44-.93.64-1.13,1.08-.57,1.3-1.74,3.06-1.28,3.9.56,1.04,2.45,1.65,3.86,1.87s3.26-.32,3.62,2.75c-5.15-3.4-9.74-.4-14.48.33s-7.43,4.87-5.91,9.37c-3.02,1.77-6,3.54-9.02,5.23-.37.2-1,0-1.49-.08-5.84-.94-9.94-4.46-13.34-9.08-1.36-1.83-3.25-3.4-4.21-5.37-1.2-2.5-2.46-5.09-2.27-8.1.08-1.25-.89-2.55-.82-3.79.31-4.97-4.33-8.31-4.1-13.42.1-2.38-1.8-4.87-2.83-7.3-.75-1.76-1.54-3.49-2.27-5.24-.2-.47-.28-1.06-.61-1.36-2.05-1.87-4.18-3.65-6.22-5.51-.31-.38-.55-.82-.68-1.29-.96-2.53-2.44-5-2.77-7.61-.61-4.78-4.05-8.88-2.87-14.16.33-1.48-1.71-3.4-2.51-5.22-.28-.87-.45-1.78-.51-2.69-.11-.58-.22-1.13-.34-1.74-.11-.81-.4-1.58-.84-2.27-1.04-2.07-2.02-4.18-3.14-6.21-.98-1.79-2.18-3.46-3.17-5.25-1.15-1.86-2.13-3.81-2.94-5.84-1.83-5.14-4.54-9.91-5.24-15.55-.47-3.57,0-7.32-1.59-10.86-1.08-2.41-.91-5.33-1.62-7.94-.73-2.62-1.67-5.18-2.81-7.65-1.32-2.87.64-4.98,1.32-7.4.14-.7.23-1.41.26-2.12-.69.37-1.34.81-1.93,1.33-.32.5-.54,1.05-.66,1.62l-.74-.16c.43-1.96.72-3.95.87-5.95,0-1.46-.15-3.4-1.03-4.33-2.27-2.55-.22-4.4.5-6.51.35-1.02.7-2.04,1.02-3.07.08-.24-.07-.62.07-.77,3.52-3.68.58-7.44-.39-10.75-1.13-3.93-1.06-6.71,3.06-9.08l-5.22-1.2,1.63-3.3-1.55.11c-.68-2.09,1.35-4.87-2.19-6.71-.4,2.27-.9,4.28-1.13,6.35-.15,1.65.11,3.31.12,4.98.05.62-.06,1.24-.32,1.8-2.12,3.72-4.96,6.54-9.4,7.34-1.05.07-2.06.42-2.92,1.03-1.57,1.75-3.98,2.47-6.25,1.86-.33-.09-.92-.11-1.02.06-1.48,2.34-3.14.95-4.7.23s-3.2-.99-4.46-2.78c-2.11-3.01-5.08-5.4-7.56-8.18-.99-1.32-1.9-2.71-2.72-4.14-.38-.53-.8-1.02-1.26-1.48-.96-1-2-1.94-2.92-2.98-1.23-1.22-2.31-2.57-3.25-4.03-.73-1.63-1.31-3.32-1.72-5.06.95.11,1.36.06,1.43.18,1.86,3.47,4.69,2.55,7.58,1.78,4.86-1.29,9.72-2.53,13.06-6.74.39-.49.76-.99,1.13-1.5.12-.2.11-.48,0-.19-2.55.31-5.21.57-7.85,1-.74.16-1.39.59-1.83,1.2-1.13,1.75-2.55,1.6-4.12.71-2.77-1.36-5.45-2.91-8.01-4.63-2.46-1.96-4.67-4.21-6.59-6.69-.68-.86-.31-2.56-.4-3.56l-4.71.57-.2-.99,1.66-.89c-.41-3.76,0-4.13,3.76-3.59,3.23.48,3.97-.12,4.02-3.31,0-.6.08-1.21.11-1.82,3.96.09,7.66,3.34,11.71.27,2.03,4.2,5.85,1.8,9.08,3.31-.74-5.67,4.37-2.27,6.14-4.78-.25,3.4,1.75,4.28,4.44,4.63l.89-2.44h2.27c-.29-.81-.49-1.64-.61-2.48-.1-1.86.87-3.87-.99-5.45-.22-.17.08-.86,0-1.26-.42-1.51-.56-3.26-1.44-4.44-2.43-3.22-2.7-4.08-.9-7.68-1.24-.1-2.34-.27-3.4-.27-2.93-.09-5.24-2.53-5.15-5.46.02-.52.11-1.04.27-1.54.59-2.08,1.06-4.2,1.4-6.34-3.19-1.13-6.01-1.7-8.44-3.04-1.45-.83-1.95-2.67-1.12-4.12.16-.28.37-.53.61-.75,2.36-2.27,3.25-5.78,6.33-7.39.16-.08.43-.2.42-.28-.33-3.15,2.94-3.78,4.19-5.85.94-1.13,2.24-1.91,3.68-2.21,1.13-.34,2.43,0,2.33,1.92-.05,1.42.12,2.83.49,4.2.21.75.75,1.37,1.46,1.69.75-.01,1.45-.35,1.93-.92,1.98-2.24,5.06-3.16,7.94-2.38,2.86.93,4.27.17,5.42-2.62.41-1.07,1.14-1.99,2.09-2.63,2.27-1.37,3.3-3.11,2.64-5.16l3.79-4.66,1.24,1.13c.44-.45.93-.83,1.48-1.13,3.86-1.4,5.29-4.77,7.35-7.94,1.22-2.08,2.12-4.34,2.68-6.68.34-1.48,1.56-2.6,3.06-2.81,1.99-.56,3.93-1.29,5.79-2.19-1.6-3.4.19-5.39,2.67-7.05.24-.13.44-.31.59-.53,1.55-3,3.52-5.61,7.15-6.64l-.36-.64-2.27-.75c1-2.42,1.82-4.7-.41-6.94-.3-.3,1.13-3.06,2.27-3.86,2.27-1.52,4.54-3.26,7.66-2.83.64.09,2.03-1.13,2.07-1.86-.04-1.08-.58-2.08-1.48-2.69-2.07-1.07-4.4-1.61-6.51-2.59-.62-.51-.99-1.27-1.01-2.08.11-.99.34-1.97.68-2.9-3.06,1.69-5.4.4-7.69-1.07-1.45-1.1-2.99-2.09-4.61-2.94-2.03-.86-2.37-2.27-2.27-4.19.07-2.77-.22-5.54-.34-8.31-.11-.68-.11-1.37,0-2.05.5-1.41.18-2.99-.83-4.1-.92-1.27-.95-3.18-1.36-4.75l5.59-.7c-1.69-2.96-.47-3.7,1.85-4.05,1.95-.2,3.43-1.85,3.4-3.81.06-1.6-.08-3.27-2.7-2.41-2.27.76-3.31-.52-2.58-2.88.21-.66.38-1.33.5-2.01,0-.19-.24-.43-.42-.75-1.83.89-3.87,2.17-5.44.07-1.06-1.76-1.93-3.63-2.6-5.57-.76.33-1.37.61-2.01.86-2.27.93-3.8.27-4.88-2.1-.98-2.12-.14-3.12,1.88-4.03,1.01-.45,1.53-2.01,2.14-3.12.69-.6,1.31-1.29,1.83-2.04,1.13-2.27,5.05-3.64,7.28-2.48,1.08.56,2.19,1.04,3.29,1.55l.67-.42-1.28-3.32c.24-.07.7-.41.99-.28" style="fill: rgb(200, 0, 217);"/><path class="cls-85_taj-mahal-52 targetColor" d="M186.75,23.89c1.36,1.63,2.76.4,4.02-.71" style="fill: rgb(200, 0, 217);"/><path class="cls-85_taj-mahal-52 targetColor" d="M173.63,24.97c3.02,1.2,5.29-.47,7.69-1.82" style="fill: rgb(200, 0, 217);"/><path class="cls-85_taj-mahal-52 targetColor" d="M164.93,134.09c-.44.57-.89,1.13-1.32,1.63.24-.68.71-1.25,1.32-1.63Z" style="fill: rgb(200, 0, 217);"/></g><g id="taj_mahal_taj-mahal-52"><rect class="cls-85_taj-mahal-52 targetColor" x="150.92" y="337.68" width="42.69" height="71.37" style="fill: rgb(200, 0, 217);"/><rect class="cls-2_taj-mahal-52" x="150.92" y="337.68" width="42.69" height="71.37"/><rect class="cls-85_taj-mahal-52 targetColor" x="191.21" y="337.68" width="2.39" height="71.37" style="fill: rgb(200, 0, 217);"/><rect class="cls-85_taj-mahal-52 targetColor" x="150.92" y="337.68" width="124.45" height="2.94" style="fill: rgb(200, 0, 217);"/><rect class="cls-85_taj-mahal-52 targetColor" x="130.74" y="342.11" width="20.17" height="66.95" style="fill: rgb(200, 0, 217);"/><rect class="cls-78_taj-mahal-52" x="130.74" y="342.11" width="20.17" height="66.95"/><rect class="cls-85_taj-mahal-52 targetColor" x="149.25" y="342.11" width="1.67" height="66.95" style="fill: rgb(200, 0, 217);"/><rect class="cls-85_taj-mahal-52 targetColor" x="130.74" y="342.1" width="20.17" height="3.2" style="fill: rgb(200, 0, 217);"/><path class="cls-85_taj-mahal-52 targetColor" d="M174.62,299.22h-5.03c-16.1,3.97-14.84,20.16-14.84,20.16h34.77s1.21-16.23-14.9-20.16Z" style="fill: rgb(200, 0, 217);"/><path class="cls-79_taj-mahal-52" d="M174.62,299.22h-5.03c-16.1,3.97-14.84,20.16-14.84,20.16h34.77s1.21-16.23-14.9-20.16Z"/><polygon class="cls-85_taj-mahal-52 targetColor" points="174.48 296.97 169.91 296.97 168.96 299.4 175.44 299.4 174.48 296.97" style="fill: rgb(200, 0, 217);"/><polygon class="cls-85_taj-mahal-52 targetColor" points="172.61 290.47 171.74 290.47 171.36 298.6 173 298.6 172.61 290.47" style="fill: rgb(200, 0, 217);"/><path class="cls-85_taj-mahal-52 targetColor" d="M174.62,299.22h-4.54c6.59,4.62,10.57,12.12,10.7,20.16h8.74s1.21-16.23-14.9-20.16Z" style="fill: rgb(200, 0, 217);"/><path class="cls-85_taj-mahal-52 targetColor" d="M240.34,272.19h-11.82c-37.89,9.34-34.91,47.43-34.91,47.43h81.7s2.92-38.09-34.96-47.43Z" style="fill: rgb(200, 0, 217);"/><path class="cls-77_taj-mahal-52" d="M240.34,272.19h-11.82c-37.89,9.34-34.91,47.43-34.91,47.43h81.7s2.92-38.09-34.96-47.43Z"/><polygon class="cls-85_taj-mahal-52 targetColor" points="240.01 266.91 229.26 266.91 227.03 272.61 242.24 272.61 240.01 266.91" style="fill: rgb(200, 0, 217);"/><polygon class="cls-85_taj-mahal-52 targetColor" points="235.6 245.65 233.56 245.65 232.66 270.75 236.51 270.75 235.6 245.65" style="fill: rgb(200, 0, 217);"/><path class="cls-85_taj-mahal-52 targetColor" d="M237.33,250.56c0-1.59-1.29-2.88-2.88-2.88s-2.88,1.29-2.88,2.88,1.29,2.88,2.88,2.88h0c1.59,0,2.88-1.29,2.88-2.88Z" style="fill: rgb(200, 0, 217);"/><path class="cls-85_taj-mahal-52 targetColor" d="M234.45,247.69c-.3,0-.59.04-.87.14,1.51.49,2.34,2.12,1.85,3.63-.29.88-.97,1.56-1.85,1.85.28.09.58.14.87.14,1.59.1,2.96-1.11,3.06-2.7.1-1.59-1.11-2.96-2.7-3.06-.12,0-.24,0-.36,0h0Z" style="fill: rgb(200, 0, 217);"/><path class="cls-85_taj-mahal-52 targetColor" d="M238.47,259.67c0-2.29-1.84-4.15-4.13-4.15s-4.15,1.84-4.15,4.13c0,2.29,1.84,4.15,4.13,4.15,0,0,.02,0,.02,0,2.28,0,4.13-1.85,4.13-4.13Z" style="fill: rgb(200, 0, 217);"/><path class="cls-85_taj-mahal-52 targetColor" d="M234.34,255.5c-.43,0-.85.06-1.26.19,2.17.69,3.38,3.01,2.69,5.18-.41,1.28-1.41,2.28-2.69,2.69.41.13.83.19,1.26.19,2.28,0,4.13-1.85,4.13-4.13,0-2.28-1.85-4.13-4.13-4.13Z" style="fill: rgb(200, 0, 217);"/><rect class="cls-85_taj-mahal-52 targetColor" x="193.6" y="319.61" width="81.76" height="9.71" style="fill: rgb(200, 0, 217);"/><rect class="cls-83_taj-mahal-52" x="193.6" y="319.61" width="81.76" height="9.71"/><rect class="cls-85_taj-mahal-52 targetColor" x="193.6" y="319.61" width="81.76" height="2.62" style="fill: rgb(200, 0, 217);"/><rect class="cls-85_taj-mahal-52 targetColor" x="193.6" y="326.7" width="81.76" height="2.62" style="fill: rgb(200, 0, 217);"/><path class="cls-85_taj-mahal-52 targetColor" d="M240.34,272.19h-10.63c11.27,8.11,24.36,22.92,25.17,47.43h20.42s2.92-38.09-34.96-47.43Z" style="fill: rgb(200, 0, 217);"/><rect class="cls-85_taj-mahal-52 targetColor" x="198.21" y="320.33" width="3.09" height="7.9" style="fill: rgb(200, 0, 217);"/><rect class="cls-85_taj-mahal-52 targetColor" x="206.85" y="320.33" width="3.09" height="7.9" style="fill: rgb(200, 0, 217);"/><rect class="cls-85_taj-mahal-52 targetColor" x="215.47" y="320.33" width="3.09" height="7.9" style="fill: rgb(200, 0, 217);"/><rect class="cls-85_taj-mahal-52 targetColor" x="224.1" y="320.33" width="3.09" height="7.9" style="fill: rgb(200, 0, 217);"/><rect class="cls-85_taj-mahal-52 targetColor" x="232.73" y="320.33" width="3.09" height="7.9" style="fill: rgb(200, 0, 217);"/><rect class="cls-85_taj-mahal-52 targetColor" x="241.36" y="320.33" width="3.09" height="7.9" style="fill: rgb(200, 0, 217);"/><rect class="cls-85_taj-mahal-52 targetColor" x="249.99" y="320.33" width="3.09" height="7.9" style="fill: rgb(200, 0, 217);"/><rect class="cls-85_taj-mahal-52 targetColor" x="258.62" y="320.33" width="3.09" height="7.9" style="fill: rgb(200, 0, 217);"/><rect class="cls-85_taj-mahal-52 targetColor" x="267.24" y="320.33" width="3.09" height="7.9" style="fill: rgb(200, 0, 217);"/><path class="cls-84_taj-mahal-52" d="M179.14,369.78h2.77v-16.7c-.06-.98-.44-1.91-1.07-2.66-1.1-1.5-2.53-2.73-4.18-3.6l-3.4-1.82-3.4,1.82c-1.65.86-3.07,2.09-4.16,3.6-.66.74-1.06,1.67-1.13,2.66v16.73h14.55l.03-.02Z"/><path class="cls-85_taj-mahal-52 targetColor" d="M180.84,350.4c-1.1-1.5-2.53-2.73-4.18-3.6l-3.4-1.82-2.16,1.13,3.28,1.75c1.72.9,3.21,2.18,4.35,3.74.66.77,1.06,1.73,1.13,2.75v15.41h2.07v-16.69c-.07-.99-.45-1.93-1.09-2.68Z" style="fill: rgb(200, 0, 217);"/><path class="cls-85_taj-mahal-52 targetColor" d="M144.78,368.15h2.07v-12.48c-.05-.72-.33-1.41-.81-1.96-.82-1.12-1.88-2.04-3.11-2.68l-2.53-1.35-2.54,1.35c-1.23.65-2.29,1.56-3.11,2.68-.47.55-.74,1.24-.79,1.96v12.48h10.82Z" style="fill: rgb(200, 0, 217);"/><path class="cls-82_taj-mahal-52" d="M179.14,369.78h2.77v-16.7c-.06-.98-.44-1.91-1.07-2.66-1.1-1.5-2.53-2.73-4.18-3.6l-3.4-1.82-3.4,1.82c-1.65.86-3.07,2.09-4.16,3.6-.66.74-1.06,1.67-1.13,2.66v16.73h14.55l.03-.02Z"/><path class="cls-80_taj-mahal-52" d="M144.78,368.15h2.07v-12.48c-.05-.72-.33-1.41-.81-1.96-.82-1.12-1.88-2.04-3.11-2.68l-2.53-1.35-2.54,1.35c-1.23.65-2.29,1.56-3.11,2.68-.47.55-.74,1.24-.79,1.96v12.48h10.82Z"/><path class="cls-85_taj-mahal-52 targetColor" d="M146.04,353.74c-.82-1.12-1.88-2.04-3.11-2.68l-2.53-1.38-1.6.85,2.44,1.3c1.27.67,2.38,1.62,3.22,2.78.49.57.78,1.29.84,2.04v11.46h1.54v-12.48c-.07-.7-.35-1.36-.81-1.89Z" style="fill: rgb(200, 0, 217);"/><path class="cls-81_taj-mahal-52" d="M144.78,403.01h2.07v-12.48c-.05-.72-.33-1.41-.81-1.96-.82-1.12-1.88-2.04-3.11-2.68l-2.53-1.35-2.54,1.35c-1.23.65-2.29,1.56-3.11,2.68-.48.55-.77,1.24-.83,1.96v12.48h10.86Z"/><path class="cls-85_taj-mahal-52 targetColor" d="M146.04,388.59c-.82-1.12-1.88-2.04-3.11-2.68l-2.53-1.35-1.6.85,2.44,1.3c1.27.67,2.38,1.62,3.22,2.78.49.57.79,1.29.84,2.04v11.46h1.54v-12.48c-.06-.71-.34-1.39-.81-1.93Z" style="fill: rgb(200, 0, 217);"/><path class="cls-85_taj-mahal-52 targetColor" d="M179.14,406.86h2.77v-16.73c-.07-.97-.44-1.9-1.07-2.64-1.1-1.5-2.53-2.73-4.18-3.6l-3.4-1.82-3.4,1.82c-1.65.86-3.07,2.09-4.16,3.6-.63.74-1.01,1.67-1.08,2.64v16.73h14.55-.02Z" style="fill: rgb(200, 0, 217);"/><path class="cls-19_taj-mahal-52" d="M144.78,403.01h2.07v-12.48c-.05-.72-.33-1.41-.81-1.96-.82-1.12-1.88-2.04-3.11-2.68l-2.53-1.35-2.54,1.35c-1.23.65-2.29,1.56-3.11,2.68-.48.55-.77,1.24-.83,1.96v12.48h10.86Z"/><path class="cls-16_taj-mahal-52" d="M179.14,406.86h2.77v-16.73c-.07-.97-.44-1.9-1.07-2.64-1.1-1.5-2.53-2.73-4.18-3.6l-3.4-1.82-3.4,1.82c-1.65.86-3.07,2.09-4.16,3.6-.63.74-1.01,1.67-1.08,2.64v16.73h14.55-.02Z"/><path class="cls-85_taj-mahal-52 targetColor" d="M180.84,387.49c-1.1-1.5-2.53-2.73-4.18-3.6l-3.4-1.82-2.16,1.13,3.28,1.75c1.71.9,3.2,2.17,4.35,3.73.66.77,1.06,1.74,1.13,2.76v15.41h2.07v-16.73c-.07-.97-.45-1.9-1.09-2.64Z" style="fill: rgb(200, 0, 217);"/><rect class="cls-85_taj-mahal-52 targetColor" x="153.86" y="318.15" width="36.51" height="1.93" style="fill: rgb(200, 0, 217);"/><rect class="cls-85_taj-mahal-52 targetColor" x="156.59" y="320" width="31.04" height="17.75" style="fill: rgb(200, 0, 217);"/><rect class="cls-17_taj-mahal-52" x="156.59" y="320" width="31.04" height="17.75"/><path class="cls-85_taj-mahal-52 targetColor" d="M164.93,332.84h1.13v-6.92c-.03-.42-.19-.81-.45-1.13-.45-.62-1.04-1.13-1.72-1.49l-1.42-.75-1.41.75c-.68.36-1.27.86-1.72,1.49-.27.32-.43.72-.45,1.13v6.92h6.05Z" style="fill: rgb(200, 0, 217);"/><path class="cls-18_taj-mahal-52" d="M164.93,332.84h1.13v-6.92c-.03-.42-.19-.81-.45-1.13-.45-.62-1.04-1.13-1.72-1.49l-1.42-.75-1.41.75c-.68.36-1.27.86-1.72,1.49-.27.32-.43.72-.45,1.13v6.92h6.05Z"/><path class="cls-27_taj-mahal-52" d="M165.69,324.81c-.45-.62-1.04-1.13-1.72-1.49l-1.42-.75-.89.48,1.36.71c.71.38,1.32.91,1.79,1.55.27.32.43.72.47,1.13v6.38h.86v-6.92c-.03-.4-.19-.79-.45-1.1Z"/><path class="cls-85_taj-mahal-52 targetColor" d="M174.51,332.84h1.13v-6.92c-.03-.42-.19-.81-.45-1.13-.45-.62-1.04-1.13-1.72-1.49l-1.42-.75-1.41.75c-.68.36-1.27.86-1.72,1.49-.27.32-.43.72-.45,1.13v6.92h6.05Z" style="fill: rgb(200, 0, 217);"/><path class="cls-23_taj-mahal-52" d="M174.51,332.84h1.13v-6.92c-.03-.42-.19-.81-.45-1.13-.45-.62-1.04-1.13-1.72-1.49l-1.42-.75-1.41.75c-.68.36-1.27.86-1.72,1.49-.27.32-.43.72-.45,1.13v6.92h6.05Z"/><path class="cls-21_taj-mahal-52" d="M175.21,324.81c-.45-.62-1.04-1.13-1.72-1.49l-1.42-.75-.89.48,1.35.71c.71.37,1.33.91,1.8,1.55.27.32.43.72.47,1.13v6.38h.86v-6.92c-.03-.4-.19-.79-.45-1.1Z"/><path class="cls-85_taj-mahal-52 targetColor" d="M184.08,332.84h1.13v-6.92c-.02-.42-.17-.82-.44-1.13-.45-.62-1.04-1.13-1.72-1.49l-1.42-.75-1.41.75c-.68.36-1.27.86-1.72,1.49-.27.32-.43.72-.45,1.13v6.92h6.04Z" style="fill: rgb(200, 0, 217);"/><path class="cls-20_taj-mahal-52" d="M184.08,332.84h1.13v-6.92c-.02-.42-.17-.82-.44-1.13-.45-.62-1.04-1.13-1.72-1.49l-1.42-.75-1.41.75c-.68.36-1.27.86-1.72,1.49-.27.32-.43.72-.45,1.13v6.92h6.04Z"/><path class="cls-85_taj-mahal-52 targetColor" d="M184.79,324.81c-.45-.62-1.04-1.13-1.72-1.49l-1.42-.75-.89.48,1.35.71c.71.37,1.33.91,1.8,1.55.27.32.43.72.47,1.13v6.38h.85v-6.92c-.03-.4-.18-.79-.44-1.1Z" style="fill: rgb(200, 0, 217);"/><path class="cls-26_taj-mahal-52" d="M165.69,324.81c-.45-.62-1.04-1.13-1.72-1.49l-1.42-.75-.89.48,1.36.71c.71.38,1.32.91,1.79,1.55.27.32.43.72.47,1.13v6.38h.86v-6.92c-.03-.4-.19-.79-.45-1.1Z"/><path class="cls-22_taj-mahal-52" d="M175.21,324.81c-.45-.62-1.04-1.13-1.72-1.49l-1.42-.75-.89.48,1.35.71c.71.37,1.33.91,1.8,1.55.27.32.43.72.47,1.13v6.38h.86v-6.92c-.03-.4-.19-.79-.45-1.1Z"/><path class="cls-29_taj-mahal-52" d="M184.79,324.81c-.45-.62-1.04-1.13-1.72-1.49l-1.42-.75-.89.48,1.35.71c.71.37,1.33.91,1.8,1.55.27.32.43.72.47,1.13v6.38h.85v-6.92c-.03-.4-.18-.79-.44-1.1Z"/><rect class="cls-85_taj-mahal-52 targetColor" x="155.74" y="335.46" width="33.69" height="2.28" style="fill: rgb(200, 0, 217);"/><rect class="cls-25_taj-mahal-52" x="155.74" y="335.46" width="33.69" height="2.28"/><rect class="cls-85_taj-mahal-52 targetColor" x="156.59" y="333.91" width="31.04" height=".74" style="fill: rgb(200, 0, 217);"/><polygon class="cls-85_taj-mahal-52 targetColor" points="124.09 409.05 110.67 409.05 112.13 333 122.63 333 124.09 409.05" style="fill: rgb(200, 0, 217);"/><polygon class="cls-85_taj-mahal-52 targetColor" points="122.48 409.05 110.67 409.05 112.13 333 121.37 333 122.48 409.05" style="fill: rgb(200, 0, 217);"/><polygon class="cls-28_taj-mahal-52" points="122.48 409.05 110.67 409.05 112.13 333 121.37 333 122.48 409.05"/><polygon class="cls-85_taj-mahal-52 targetColor" points="121.63 349.74 111.79 349.74 111.74 352.13 121.67 352.13 121.63 349.74" style="fill: rgb(200, 0, 217);"/><polygon class="cls-85_taj-mahal-52 targetColor" points="111.26 375.75 111.19 378.52 122.07 378.52 122.04 375.75 111.26 375.75" style="fill: rgb(200, 0, 217);"/><path class="cls-85_taj-mahal-52 targetColor" d="M118.47,314.27h-2.16c-6.92,1.7-6.39,8.66-6.39,8.66h14.92s.54-6.96-6.38-8.66Z" style="fill: rgb(200, 0, 217);"/><path class="cls-24_taj-mahal-52" d="M118.47,314.27h-2.16c-6.92,1.7-6.39,8.66-6.39,8.66h14.92s.54-6.96-6.38-8.66Z"/><polygon class="cls-85_taj-mahal-52 targetColor" points="118.41 313.31 116.45 313.31 116.04 314.34 118.82 314.34 118.41 313.31" style="fill: rgb(200, 0, 217);"/><polygon class="cls-85_taj-mahal-52 targetColor" points="117.6 310.51 117.23 310.51 117.06 314 117.76 314 117.6 310.51" style="fill: rgb(200, 0, 217);"/><path class="cls-85_taj-mahal-52 targetColor" d="M118.47,314.27h-1.94c2.83,1.98,4.54,5.2,4.6,8.66h3.72s.54-6.96-6.38-8.66Z" style="fill: rgb(200, 0, 217);"/><rect class="cls-85_taj-mahal-52 targetColor" x="109.9" y="323.41" width="14.98" height="8.56" style="fill: rgb(200, 0, 217);"/><rect class="cls-85_taj-mahal-52 targetColor" x="109.9" y="323.41" width="11.55" height="8.56" style="fill: rgb(200, 0, 217);"/><rect class="cls-85_taj-mahal-52 targetColor" x="109.9" y="323.41" width="11.55" height="8.56" style="fill: rgb(200, 0, 217);"/><rect class="cls-31_taj-mahal-52" x="109.9" y="323.41" width="11.55" height="8.56"/><path class="cls-15_taj-mahal-52" d="M113.93,329.6h.56v-3.34c-.02-.2-.09-.38-.22-.53-.22-.3-.51-.54-.84-.71l-.68-.36-.68.36c-.33.17-.61.41-.83.71-.13.15-.21.34-.22.53v3.34h2.9Z"/><path class="cls-85_taj-mahal-52 targetColor" d="M114.27,325.73c-.22-.3-.51-.54-.84-.71l-.68-.36-.43.23.66.35c.34.18.63.43.86.74.14.16.21.35.23.56v3.07h.42v-3.34c-.02-.2-.09-.38-.22-.53Z" style="fill: rgb(200, 0, 217);"/><path class="cls-32_taj-mahal-52" d="M118.54,329.6h.56v-3.34c-.02-.2-.09-.38-.22-.53-.22-.3-.51-.54-.84-.71l-.68-.36-.68.36c-.33.17-.61.41-.83.71-.13.15-.2.34-.22.53v3.34h2.9Z"/><path class="cls-85_taj-mahal-52 targetColor" d="M118.89,325.73c-.22-.3-.51-.54-.84-.71l-.68-.36-.43.23.66.35c.34.18.63.43.86.74.14.16.21.35.23.56v3.07h.42v-3.34c-.02-.2-.09-.38-.22-.53Z" style="fill: rgb(200, 0, 217);"/><path class="cls-85_taj-mahal-52 targetColor" d="M123.16,329.6h.54v-3.34c-.02-.2-.09-.38-.22-.53-.22-.3-.51-.55-.84-.71l-.68-.36-.68.36c-.33.17-.61.41-.83.71-.13.15-.2.34-.22.53v3.34h2.92Z" style="fill: rgb(200, 0, 217);"/><path class="cls-30_taj-mahal-52" d="M113.93,329.6h.56v-3.34c-.02-.2-.09-.38-.22-.53-.22-.3-.51-.54-.84-.71l-.68-.36-.68.36c-.33.17-.61.41-.83.71-.13.15-.21.34-.22.53v3.34h2.9Z"/><path class="cls-14_taj-mahal-52" d="M118.54,329.6h.56v-3.34c-.02-.2-.09-.38-.22-.53-.22-.3-.51-.54-.84-.71l-.68-.36-.68.36c-.33.17-.61.41-.83.71-.13.15-.2.34-.22.53v3.34h2.9Z"/><path class="cls-5_taj-mahal-52" d="M123.16,329.6h.54v-3.34c-.02-.2-.09-.38-.22-.53-.22-.3-.51-.55-.84-.71l-.68-.36-.68.36c-.33.17-.61.41-.83.71-.13.15-.2.34-.22.53v3.34h2.92Z"/><path class="cls-85_taj-mahal-52 targetColor" d="M123.5,325.73c-.22-.3-.51-.55-.84-.71l-.68-.36-.43.23.66.35c.34.18.63.43.86.74.14.16.21.35.23.56v3.07h.41v-3.34c-.01-.19-.08-.38-.2-.53Z" style="fill: rgb(200, 0, 217);"/><rect class="cls-85_taj-mahal-52 targetColor" x="108.58" y="322.51" width="17.61" height="1.59" style="fill: rgb(200, 0, 217);"/><rect class="cls-85_taj-mahal-52 targetColor" x="108.58" y="331.42" width="17.61" height="1.59" style="fill: rgb(200, 0, 217);"/><rect class="cls-85_taj-mahal-52 targetColor" x="110.6" y="348.93" width="13.09" height="2.37" rx=".66" ry=".66" style="fill: rgb(200, 0, 217);"/><rect class="cls-85_taj-mahal-52 targetColor" x="109.54" y="374.81" width="15.23" height="2.76" rx=".76" ry=".76" style="fill: rgb(200, 0, 217);"/><polygon class="cls-85_taj-mahal-52 targetColor" points="91.81 409.05 73.06 409.05 75.11 302.78 89.76 302.78 91.81 409.05" style="fill: rgb(200, 0, 217);"/><polygon class="cls-85_taj-mahal-52 targetColor" points="89.55 409.05 73.06 409.05 75.11 302.78 88 302.78 89.55 409.05" style="fill: rgb(200, 0, 217);"/><polygon class="cls-7_taj-mahal-52" points="89.55 409.05 73.06 409.05 75.11 302.78 88 302.78 89.55 409.05"/><polygon class="cls-85_taj-mahal-52 targetColor" points="88.36 326.19 74.62 326.19 74.55 329.51 88.42 329.51 88.36 326.19" style="fill: rgb(200, 0, 217);"/><polygon class="cls-8_taj-mahal-52" points="88.36 326.19 74.62 326.19 74.55 329.51 88.42 329.51 88.36 326.19"/><polygon class="cls-85_taj-mahal-52 targetColor" points="73.87 362.53 73.79 366.39 89 366.39 88.93 362.53 73.87 362.53" style="fill: rgb(200, 0, 217);"/><polygon class="cls-6_taj-mahal-52" points="73.87 362.53 73.79 366.39 89 366.39 88.93 362.53 73.87 362.53"/><path class="cls-85_taj-mahal-52 targetColor" d="M83.99,276.61h-3.06c-9.68,2.38-8.92,12.11-8.92,12.11h20.84s.76-9.72-8.86-12.11Z" style="fill: rgb(200, 0, 217);"/><path class="cls-4_taj-mahal-52" d="M83.99,276.61h-3.06c-9.68,2.38-8.92,12.11-8.92,12.11h20.84s.76-9.72-8.86-12.11Z"/><polygon class="cls-85_taj-mahal-52 targetColor" points="83.86 275.26 81.11 275.26 80.54 276.72 84.43 276.72 83.86 275.26" style="fill: rgb(200, 0, 217);"/><polygon class="cls-85_taj-mahal-52 targetColor" points="82.73 271.36 82.21 271.36 81.99 276.25 82.96 276.25 82.73 271.36" style="fill: rgb(200, 0, 217);"/><path class="cls-85_taj-mahal-52 targetColor" d="M83.99,276.61h-2.72c3.96,2.77,6.36,7.27,6.43,12.11h5.2s.71-9.72-8.91-12.11Z" style="fill: rgb(200, 0, 217);"/><rect class="cls-85_taj-mahal-52 targetColor" x="71.98" y="289.39" width="20.92" height="11.96" style="fill: rgb(200, 0, 217);"/><rect class="cls-85_taj-mahal-52 targetColor" x="71.98" y="289.39" width="16.14" height="11.96" style="fill: rgb(200, 0, 217);"/><path class="cls-11_taj-mahal-52" d="M77.61,298.04h.77v-4.66c-.02-.27-.13-.53-.31-.74-.3-.42-.69-.76-1.13-1.01l-.94-.5-.95.5c-.45.25-.84.59-1.13,1.01-.17.21-.28.47-.3.74v4.66h4.06-.07Z"/><path class="cls-85_taj-mahal-52 targetColor" d="M78.07,292.64c-.3-.42-.69-.76-1.13-1.01l-.94-.5-.6.32.91.49c.48.25.9.61,1.21,1.04.18.21.3.48.32.76v4.3h.58v-4.66c-.03-.28-.15-.54-.34-.74Z" style="fill: rgb(200, 0, 217);"/><path class="cls-13_taj-mahal-52" d="M84.05,298.04h.77v-4.66c-.02-.27-.12-.53-.3-.74-.3-.42-.69-.76-1.13-1.01l-.95-.5-.95.5c-.45.25-.84.59-1.13,1.01-.18.21-.29.46-.31.74v4.66h4.06-.06Z"/><path class="cls-85_taj-mahal-52 targetColor" d="M84.53,292.64c-.3-.42-.69-.76-1.13-1.01l-.95-.5-.6.32.92.49c.49.24.91.58,1.24,1.01.18.21.29.48.31.76v4.3h.58v-4.66c-.04-.27-.16-.51-.35-.7Z" style="fill: rgb(200, 0, 217);"/><path class="cls-85_taj-mahal-52 targetColor" d="M90.51,298.04h.77v-4.66c-.02-.27-.12-.53-.3-.74-.3-.41-.69-.76-1.13-1.01l-.95-.5-.95.5c-.45.25-.83.6-1.13,1.01-.17.21-.28.47-.3.74v4.66h4.06-.07Z" style="fill: rgb(200, 0, 217);"/><path class="cls-9_taj-mahal-52" d="M77.61,298.04h.77v-4.66c-.02-.27-.13-.53-.31-.74-.3-.42-.69-.76-1.13-1.01l-.94-.5-.95.5c-.45.25-.84.59-1.13,1.01-.17.21-.28.47-.3.74v4.66h4.06-.07Z"/><path class="cls-12_taj-mahal-52" d="M84.05,298.04h.77v-4.66c-.02-.27-.12-.53-.3-.74-.3-.42-.69-.76-1.13-1.01l-.95-.5-.95.5c-.45.25-.84.59-1.13,1.01-.18.21-.29.46-.31.74v4.66h4.06-.06Z"/><path class="cls-3_taj-mahal-52" d="M90.51,298.04h.77v-4.66c-.02-.27-.12-.53-.3-.74-.3-.41-.69-.76-1.13-1.01l-.95-.5-.95.5c-.45.25-.83.6-1.13,1.01-.17.21-.28.47-.3.74v4.66h4.06-.07Z"/><path class="cls-85_taj-mahal-52 targetColor" d="M90.98,292.64c-.3-.41-.69-.76-1.13-1.01l-.95-.5-.6.32.92.49c.48.25.89.6,1.2,1.04.19.21.3.48.32.76v4.3h.58v-4.66c-.03-.27-.14-.53-.33-.74Z" style="fill: rgb(200, 0, 217);"/><rect class="cls-85_taj-mahal-52 targetColor" x="70.13" y="288.14" width="24.61" height="2.22" style="fill: rgb(200, 0, 217);"/><rect class="cls-85_taj-mahal-52 targetColor" x="70.13" y="300.58" width="24.61" height="2.22" style="fill: rgb(200, 0, 217);"/><rect class="cls-10_taj-mahal-52" x="70.13" y="288.14" width="24.61" height="2.22"/><rect class="cls-41_taj-mahal-52" x="70.13" y="300.58" width="24.61" height="2.22"/><rect class="cls-85_taj-mahal-52 targetColor" x="72.95" y="325.04" width="18.3" height="3.32" rx=".91" ry=".91" style="fill: rgb(200, 0, 217);"/><rect class="cls-85_taj-mahal-52 targetColor" x="71.47" y="361.19" width="21.28" height="3.86" rx="1.06" ry="1.06" style="fill: rgb(200, 0, 217);"/><rect class="cls-85_taj-mahal-52 targetColor" x="193.6" y="329.27" width="81.76" height="79.78" style="fill: rgb(200, 0, 217);"/><rect class="cls-42_taj-mahal-52" x="193.6" y="329.27" width="81.76" height="79.78"/><polygon class="cls-85_taj-mahal-52 targetColor" points="205.86 408.57 205.86 342.7 262.88 342.7 262.88 408.57 269.48 408.57 269.48 336.09 199.25 336.09 199.25 408.57 205.86 408.57" style="fill: rgb(200, 0, 217);"/><path class="cls-85_taj-mahal-52 targetColor" d="M249.53,409.05h7.09v-42.87c.11-2.1-1.13-4.54-2.76-6.81-2.81-3.85-6.48-7-10.7-9.2l-8.74-4.66-8.74,4.66c-4.22,2.21-7.89,5.36-10.7,9.2-1.62,2.27-2.87,4.7-2.77,6.81v42.87h37.31,0Z" style="fill: rgb(200, 0, 217);"/><path class="cls-39_taj-mahal-52" d="M249.53,409.05h7.09v-42.87c.11-2.1-1.13-4.54-2.76-6.81-2.81-3.85-6.48-7-10.7-9.2l-8.74-4.66-8.74,4.66c-4.22,2.21-7.89,5.36-10.7,9.2-1.62,2.27-2.87,4.7-2.77,6.81v42.87h37.31,0Z"/><path class="cls-1_taj-mahal-52 targetColor" d="M219.33,409.05v-42.99c.34-.91.81-1.76,1.42-2.52,2.18-2.97,5.02-5.39,8.28-7.09l5.4-2.88,5.4,2.88c3.26,1.7,6.09,4.13,8.27,7.09.6.76,1.09,1.61,1.43,2.52v42.99h7.09v-42.87c.11-2.1-1.13-4.54-2.76-6.81-2.81-3.85-6.48-7-10.7-9.2l-8.74-4.66-8.74,4.66c-4.22,2.21-7.89,5.36-10.7,9.2-1.62,2.27-2.87,4.7-2.77,6.81v42.87h7.1Z" style="fill: rgb(200, 0, 217);"/><rect class="cls-85_taj-mahal-52 targetColor" x="150.92" y="374.04" width="42.74" height="3.89" style="fill: rgb(200, 0, 217);"/><rect class="cls-85_taj-mahal-52 targetColor" x="130.75" y="377.55" width="20.16" height="3.89" style="fill: rgb(200, 0, 217);"/><rect class="cls-85_taj-mahal-52 targetColor" x="275.39" y="337.68" width="2.87" height="71.37" style="fill: rgb(200, 0, 217);"/><path class="cls-86_taj-mahal-52 targetColor" d="M249.53,366.06c-.34-.91-.82-1.76-1.43-2.52-2.18-2.97-5.01-5.39-8.27-7.09l-5.4-2.88-3.68,1.95c6,3.47,13.14,8.46,13.43,12.72v40.85h5.34v-43.03Z" style="fill: rgb(200, 0, 217);"/><path class="cls-40_taj-mahal-52" d="M249.53,366.06c-.34-.91-.82-1.76-1.43-2.52-2.18-2.97-5.01-5.39-8.27-7.09l-5.4-2.88-3.68,1.95c6,3.47,13.14,8.46,13.43,12.72v40.85h5.34v-43.03Z"/><rect class="cls-85_taj-mahal-52 targetColor" x="277.77" y="337.69" width="42.69" height="71.37" style="fill: rgb(200, 0, 217);"/><rect class="cls-35_taj-mahal-52" x="277.77" y="337.69" width="42.69" height="71.37"/><rect class="cls-85_taj-mahal-52 targetColor" x="196.01" y="337.69" width="124.45" height="2.94" style="fill: rgb(200, 0, 217);"/><rect class="cls-85_taj-mahal-52 targetColor" x="320.47" y="342.12" width="20.17" height="66.95" style="fill: rgb(200, 0, 217);"/><rect class="cls-33_taj-mahal-52" x="320.47" y="342.12" width="20.17" height="66.95"/><rect class="cls-85_taj-mahal-52 targetColor" x="320.47" y="342.12" width="1.67" height="66.95" style="fill: rgb(200, 0, 217);"/><rect class="cls-85_taj-mahal-52 targetColor" x="320.47" y="342.12" width="20.17" height="3.2" style="fill: rgb(200, 0, 217);"/><path class="cls-85_taj-mahal-52 targetColor" d="M296.76,299.24h5.03c16.11,3.91,14.82,20.16,14.82,20.16h-34.72s-1.23-16.25,14.88-20.16Z" style="fill: rgb(200, 0, 217);"/><path class="cls-34_taj-mahal-52" d="M296.76,299.24h5.03c16.11,3.91,14.82,20.16,14.82,20.16h-34.72s-1.23-16.25,14.88-20.16Z"/><polygon class="cls-85_taj-mahal-52 targetColor" points="296.89 296.99 301.47 296.99 302.42 299.41 295.95 299.41 296.89 296.99" style="fill: rgb(200, 0, 217);"/><polygon class="cls-85_taj-mahal-52 targetColor" points="298.78 290.48 299.64 290.48 300.03 298.61 298.39 298.61 298.78 290.48" style="fill: rgb(200, 0, 217);"/><path class="cls-85_taj-mahal-52 targetColor" d="M296.76,299.24h4.54c-6.59,4.62-10.58,12.11-10.71,20.16h-8.66s-1.27-16.25,14.83-20.16Z" style="fill: rgb(200, 0, 217);"/><path class="cls-38_taj-mahal-52" d="M292.24,369.79h-2.77v-16.71c.09-.98.48-1.91,1.13-2.66,1.1-1.5,2.53-2.73,4.18-3.59l3.4-1.83,3.4,1.83c1.65.86,3.08,2.09,4.18,3.59.64.75,1.01,1.68,1.08,2.66v16.73h-14.6Z"/><path class="cls-85_taj-mahal-52 targetColor" d="M290.51,350.41c1.1-1.5,2.53-2.73,4.18-3.59l3.4-1.83,2.14,1.13-3.28,1.75c-1.71.9-3.19,2.18-4.33,3.74-.66.77-1.06,1.74-1.13,2.76v15.4h-2.08v-16.7c.08-.98.46-1.92,1.1-2.67Z" style="fill: rgb(200, 0, 217);"/><path class="cls-85_taj-mahal-52 targetColor" d="M326.6,368.17h-2.05v-12.48c.05-.73.33-1.42.79-1.97.82-1.11,1.89-2.03,3.11-2.68l2.54-1.35,2.53,1.35c1.23.64,2.29,1.56,3.11,2.68.47.55.76,1.25.81,1.97v12.48h-10.84Z" style="fill: rgb(200, 0, 217);"/><path class="cls-36_taj-mahal-52" d="M292.24,369.79h-2.77v-16.71c.09-.98.48-1.91,1.13-2.66,1.1-1.5,2.53-2.73,4.18-3.59l3.4-1.83,3.4,1.83c1.65.86,3.08,2.09,4.18,3.59.64.75,1.01,1.68,1.08,2.66v16.73h-14.6Z"/><path class="cls-37_taj-mahal-52" d="M326.6,368.17h-2.05v-12.48c.05-.73.33-1.42.79-1.97.82-1.11,1.89-2.03,3.11-2.68l2.54-1.35,2.53,1.35c1.23.64,2.29,1.56,3.11,2.68.47.55.76,1.25.81,1.97v12.48h-10.84Z"/><path class="cls-85_taj-mahal-52 targetColor" d="M325.34,353.75c.82-1.11,1.89-2.03,3.11-2.68l2.54-1.35,1.6.85-2.44,1.3c-1.28.67-2.38,1.62-3.23,2.78-.49.58-.78,1.3-.83,2.05v11.46h-1.54v-12.48c.05-.71.33-1.39.79-1.94Z" style="fill: rgb(200, 0, 217);"/><path class="cls-51_taj-mahal-52" d="M326.6,403.01h-2.05v-12.48c.05-.73.33-1.42.79-1.97.82-1.11,1.89-2.03,3.11-2.68l2.54-1.35,2.53,1.35c1.23.64,2.29,1.56,3.11,2.68.47.55.76,1.25.81,1.97v12.48h-10.84Z"/><path class="cls-85_taj-mahal-52 targetColor" d="M325.34,388.61c.82-1.11,1.89-2.03,3.11-2.68l2.54-1.35,1.6.85-2.44,1.3c-1.28.66-2.39,1.62-3.23,2.78-.49.58-.78,1.29-.83,2.04v11.45h-1.54v-12.48c.06-.71.34-1.38.79-1.92Z" style="fill: rgb(200, 0, 217);"/><path class="cls-85_taj-mahal-52 targetColor" d="M292.24,406.89h-2.77v-16.74c.09-.98.49-1.91,1.13-2.64,1.1-1.5,2.53-2.73,4.18-3.6l3.4-1.82,3.4,1.82c1.65.86,3.08,2.09,4.18,3.6.63.74,1.01,1.67,1.08,2.64v16.74h-14.6Z" style="fill: rgb(200, 0, 217);"/><path class="cls-49_taj-mahal-52" d="M326.6,403.01h-2.05v-12.48c.05-.73.33-1.42.79-1.97.82-1.11,1.89-2.03,3.11-2.68l2.54-1.35,2.53,1.35c1.23.64,2.29,1.56,3.11,2.68.47.55.76,1.25.81,1.97v12.48h-10.84Z"/><path class="cls-50_taj-mahal-52" d="M292.24,406.89h-2.77v-16.74c.09-.98.49-1.91,1.13-2.64,1.1-1.5,2.53-2.73,4.18-3.6l3.4-1.82,3.4,1.82c1.65.86,3.08,2.09,4.18,3.6.63.74,1.01,1.67,1.08,2.64v16.74h-14.6Z"/><path class="cls-85_taj-mahal-52 targetColor" d="M290.51,387.51c1.1-1.5,2.53-2.73,4.18-3.6l3.4-1.82,2.14,1.13-3.28,1.75c-1.71.9-3.19,2.17-4.33,3.73-.66.78-1.06,1.74-1.13,2.76v15.41h-2.08v-16.73c.08-.98.46-1.9,1.1-2.64Z" style="fill: rgb(200, 0, 217);"/><rect class="cls-85_taj-mahal-52 targetColor" x="281.01" y="318.18" width="36.51" height="1.93" style="fill: rgb(200, 0, 217);"/><rect class="cls-85_taj-mahal-52 targetColor" x="283.74" y="320.01" width="31.04" height="17.75" style="fill: rgb(200, 0, 217);"/><rect class="cls-48_taj-mahal-52" x="283.74" y="320.01" width="31.04" height="17.75"/><path class="cls-85_taj-mahal-52 targetColor" d="M306.45,332.86h-1.13v-6.93c.02-.42.17-.82.44-1.13.46-.63,1.05-1.14,1.74-1.5l1.41-.75,1.42.75c.68.36,1.27.87,1.72,1.5.27.32.43.72.44,1.13v6.93h-6.04Z" style="fill: rgb(200, 0, 217);"/><path class="cls-52_taj-mahal-52" d="M306.45,332.86h-1.13v-6.93c.02-.42.17-.82.44-1.13.46-.63,1.05-1.14,1.74-1.5l1.41-.75,1.42.75c.68.36,1.27.87,1.72,1.5.27.32.43.72.44,1.13v6.93h-6.04Z"/><path class="cls-46_taj-mahal-52" d="M305.74,324.84c.46-.63,1.05-1.14,1.74-1.5l1.41-.75.9.48-1.36.73c-.71.37-1.32.9-1.79,1.54-.27.32-.44.72-.47,1.13v6.38h-.91v-6.93c.04-.4.21-.78.49-1.08Z"/><path class="cls-85_taj-mahal-52 targetColor" d="M296.87,332.86h-1.13v-6.93c.02-.42.17-.82.44-1.13.46-.63,1.05-1.14,1.74-1.5l1.41-.75,1.42.75c.68.36,1.27.87,1.72,1.5.27.32.43.72.44,1.13v6.93h-6.04Z" style="fill: rgb(200, 0, 217);"/><path class="cls-47_taj-mahal-52" d="M296.87,332.86h-1.13v-6.93c.02-.42.17-.82.44-1.13.46-.63,1.05-1.14,1.74-1.5l1.41-.75,1.42.75c.68.36,1.27.87,1.72,1.5.27.32.43.72.44,1.13v6.93h-6.04Z"/><path class="cls-44_taj-mahal-52" d="M296.18,324.84c.46-.63,1.05-1.14,1.74-1.5l1.41-.75.9.48-1.36.73c-.71.37-1.32.9-1.79,1.54-.27.32-.44.72-.47,1.13v6.38h-.86v-6.93c.03-.4.19-.77.44-1.08Z"/><path class="cls-85_taj-mahal-52 targetColor" d="M287.29,332.86h-1.13v-6.93c.02-.42.17-.82.44-1.13.46-.63,1.05-1.14,1.74-1.5l1.41-.75,1.42.75c.68.36,1.27.87,1.72,1.5.27.32.43.72.44,1.13v6.93h-6.04Z" style="fill: rgb(200, 0, 217);"/><path class="cls-45_taj-mahal-52" d="M287.29,332.86h-1.13v-6.93c.02-.42.17-.82.44-1.13.46-.63,1.05-1.14,1.74-1.5l1.41-.75,1.42.75c.68.36,1.27.87,1.72,1.5.27.32.43.72.44,1.13v6.93h-6.04Z"/><path class="cls-85_taj-mahal-52 targetColor" d="M286.59,324.84c.46-.63,1.05-1.14,1.74-1.5l1.41-.75.9.48-1.36.73c-.71.37-1.32.9-1.79,1.54-.27.32-.44.72-.47,1.13v6.38h-.86v-6.93c.03-.4.19-.77.44-1.08Z" style="fill: rgb(200, 0, 217);"/><path class="cls-43_taj-mahal-52" d="M305.74,324.84c.46-.63,1.05-1.14,1.74-1.5l1.41-.75.9.48-1.36.73c-.71.37-1.32.9-1.79,1.54-.27.32-.44.72-.47,1.13v6.38h-.91v-6.93c.04-.4.21-.78.49-1.08Z"/><path class="cls-53_taj-mahal-52" d="M296.18,324.84c.46-.63,1.05-1.14,1.74-1.5l1.41-.75.9.48-1.36.73c-.71.37-1.32.9-1.79,1.54-.27.32-.44.72-.47,1.13v6.38h-.86v-6.93c.03-.4.19-.77.44-1.08Z"/><path class="cls-54_taj-mahal-52" d="M286.59,324.84c.46-.63,1.05-1.14,1.74-1.5l1.41-.75.9.48-1.36.73c-.71.37-1.32.9-1.79,1.54-.27.32-.44.72-.47,1.13v6.38h-.86v-6.93c.03-.4.19-.77.44-1.08Z"/><rect class="cls-85_taj-mahal-52 targetColor" x="281.96" y="335.48" width="33.69" height="2.28" style="fill: rgb(200, 0, 217);"/><rect class="cls-55_taj-mahal-52" x="281.96" y="335.48" width="33.69" height="2.28"/><rect class="cls-85_taj-mahal-52 targetColor" x="283.75" y="333.93" width="31.04" height=".74" style="fill: rgb(200, 0, 217);"/><polygon class="cls-85_taj-mahal-52 targetColor" points="347.28 409.06 360.71 409.06 359.24 333.01 348.76 333.01 347.28 409.06" style="fill: rgb(200, 0, 217);"/><polygon class="cls-85_taj-mahal-52 targetColor" points="348.91 409.06 360.71 409.06 359.24 333.01 350.02 333.01 348.91 409.06" style="fill: rgb(200, 0, 217);"/><polygon class="cls-66_taj-mahal-52" points="348.91 409.06 360.71 409.06 359.24 333.01 350.02 333.01 348.91 409.06"/><polygon class="cls-85_taj-mahal-52 targetColor" points="349.76 349.77 359.6 349.77 359.64 352.14 349.71 352.14 349.76 349.77" style="fill: rgb(200, 0, 217);"/><polygon class="cls-85_taj-mahal-52 targetColor" points="360.13 375.77 360.19 378.53 349.3 378.53 349.35 375.77 360.13 375.77" style="fill: rgb(200, 0, 217);"/><path class="cls-85_taj-mahal-52 targetColor" d="M352.91,314.28h2.16c6.92,1.7,6.38,8.67,6.38,8.67h-14.91s-.53-6.97,6.38-8.67Z" style="fill: rgb(200, 0, 217);"/><path class="cls-68_taj-mahal-52" d="M352.91,314.28h2.16c6.92,1.7,6.38,8.67,6.38,8.67h-14.91s-.53-6.97,6.38-8.67Z"/><polygon class="cls-85_taj-mahal-52 targetColor" points="352.98 313.32 354.94 313.32 355.35 314.35 352.57 314.35 352.98 313.32" style="fill: rgb(200, 0, 217);"/><polygon class="cls-85_taj-mahal-52 targetColor" points="353.79 310.52 354.16 310.52 354.32 314.02 353.62 314.02 353.79 310.52" style="fill: rgb(200, 0, 217);"/><path class="cls-85_taj-mahal-52 targetColor" d="M352.91,314.28h1.94c-2.83,1.98-4.54,5.21-4.6,8.67h-3.73s-.52-6.97,6.39-8.67Z" style="fill: rgb(200, 0, 217);"/><rect class="cls-85_taj-mahal-52 targetColor" x="346.51" y="323.42" width="14.98" height="8.56" style="fill: rgb(200, 0, 217);"/><rect class="cls-85_taj-mahal-52 targetColor" x="349.93" y="323.42" width="11.55" height="8.56" style="fill: rgb(200, 0, 217);"/><rect class="cls-85_taj-mahal-52 targetColor" x="349.93" y="323.42" width="11.55" height="8.56" style="fill: rgb(200, 0, 217);"/><rect class="cls-56_taj-mahal-52" x="349.93" y="323.42" width="11.55" height="8.56"/><path class="cls-65_taj-mahal-52" d="M357.45,329.61h-.56v-3.34c.01-.2.09-.38.22-.53.22-.3.51-.54.84-.71l.68-.36.68.36c.33.17.61.42.83.71.13.15.2.34.22.53v3.34h-2.9Z"/><path class="cls-85_taj-mahal-52 targetColor" d="M357.12,325.75c.22-.3.51-.54.84-.71l.68-.36.42.23-.65.35c-.35.18-.64.44-.87.75-.13.15-.2.34-.22.54v3.07h-.42v-3.34c.01-.2.09-.38.22-.53Z" style="fill: rgb(200, 0, 217);"/><path class="cls-63_taj-mahal-52" d="M352.84,329.61h-.56v-3.34c.01-.2.09-.38.22-.53.22-.3.51-.54.84-.71l.68-.36.68.36c.33.17.61.42.83.71.13.15.2.34.22.53v3.34h-2.9Z"/><path class="cls-85_taj-mahal-52 targetColor" d="M352.5,325.75c.22-.3.51-.54.84-.71l.68-.36.42.23-.65.35c-.35.18-.64.44-.87.75-.13.15-.2.34-.22.54v3.07h-.42v-3.34c.01-.2.09-.38.22-.53Z" style="fill: rgb(200, 0, 217);"/><path class="cls-85_taj-mahal-52 targetColor" d="M348.23,329.61h-.56v-3.34c.01-.2.09-.38.22-.53.22-.3.5-.54.83-.71l.69-.36.68.36c.33.17.61.42.83.71.13.15.2.34.22.53v3.34h-2.9Z" style="fill: rgb(200, 0, 217);"/><path class="cls-64_taj-mahal-52" d="M357.45,329.61h-.56v-3.34c.01-.2.09-.38.22-.53.22-.3.51-.54.84-.71l.68-.36.68.36c.33.17.61.42.83.71.13.15.2.34.22.53v3.34h-2.9Z"/><path class="cls-67_taj-mahal-52" d="M352.84,329.61h-.56v-3.34c.01-.2.09-.38.22-.53.22-.3.51-.54.84-.71l.68-.36.68.36c.33.17.61.42.83.71.13.15.2.34.22.53v3.34h-2.9Z"/><path class="cls-71_taj-mahal-52" d="M348.23,329.61h-.56v-3.34c.01-.2.09-.38.22-.53.22-.3.5-.54.83-.71l.69-.36.68.36c.33.17.61.42.83.71.13.15.2.34.22.53v3.34h-2.9Z"/><path class="cls-85_taj-mahal-52 targetColor" d="M347.89,325.75c.22-.3.5-.54.83-.71l.69-.36.42.23-.65.35c-.35.18-.64.44-.87.75-.13.15-.2.34-.22.54v3.07h-.42v-3.34c.01-.2.09-.38.22-.53Z" style="fill: rgb(200, 0, 217);"/><rect class="cls-85_taj-mahal-52 targetColor" x="345.2" y="322.53" width="17.61" height="1.59" style="fill: rgb(200, 0, 217);"/><rect class="cls-85_taj-mahal-52 targetColor" x="345.2" y="331.43" width="17.61" height="1.59" style="fill: rgb(200, 0, 217);"/><rect class="cls-85_taj-mahal-52 targetColor" x="347.68" y="348.95" width="13.09" height="2.37" rx=".66" ry=".66" style="fill: rgb(200, 0, 217);"/><rect class="cls-85_taj-mahal-52 targetColor" x="346.61" y="374.82" width="15.23" height="2.76" rx=".76" ry=".76" style="fill: rgb(200, 0, 217);"/><polygon class="cls-85_taj-mahal-52 targetColor" points="379.57 409.06 398.32 409.06 396.28 302.79 381.62 302.79 379.57 409.06" style="fill: rgb(200, 0, 217);"/><polygon class="cls-85_taj-mahal-52 targetColor" points="381.84 409.06 398.32 409.06 396.28 302.79 383.39 302.79 381.84 409.06" style="fill: rgb(200, 0, 217);"/><polygon class="cls-69_taj-mahal-52" points="381.84 409.06 398.32 409.06 396.28 302.79 383.39 302.79 381.84 409.06"/><polygon class="cls-85_taj-mahal-52 targetColor" points="383.02 326.2 396.77 326.2 396.84 329.52 382.97 329.52 383.02 326.2" style="fill: rgb(200, 0, 217);"/><polygon class="cls-70_taj-mahal-52" points="383.02 326.2 396.77 326.2 396.84 329.52 382.97 329.52 383.02 326.2"/><polygon class="cls-85_taj-mahal-52 targetColor" points="397.52 362.54 397.6 366.4 382.39 366.4 382.45 362.54 397.52 362.54" style="fill: rgb(200, 0, 217);"/><polygon class="cls-72_taj-mahal-52" points="397.52 362.54 397.6 366.4 382.39 366.4 382.45 362.54 397.52 362.54"/><path class="cls-85_taj-mahal-52 targetColor" d="M387.44,276.64h3.02c9.67,2.38,8.92,12.11,8.92,12.11h-20.86s-.75-9.72,8.92-12.11Z" style="fill: rgb(200, 0, 217);"/><path class="cls-62_taj-mahal-52" d="M387.44,276.64h3.02c9.67,2.38,8.92,12.11,8.92,12.11h-20.86s-.75-9.72,8.92-12.11Z"/><polygon class="cls-85_taj-mahal-52 targetColor" points="387.52 275.29 390.27 275.29 390.83 276.74 386.95 276.74 387.52 275.29" style="fill: rgb(200, 0, 217);"/><polygon class="cls-85_taj-mahal-52 targetColor" points="388.64 271.37 389.17 271.37 389.4 276.26 388.42 276.26 388.64 271.37" style="fill: rgb(200, 0, 217);"/><path class="cls-85_taj-mahal-52 targetColor" d="M387.44,276.64h2.71c-3.96,2.77-6.35,7.27-6.42,12.11h-5.21s-.75-9.72,8.92-12.11Z" style="fill: rgb(200, 0, 217);"/><rect class="cls-85_taj-mahal-52 targetColor" x="378.49" y="289.4" width="20.92" height="11.96" style="fill: rgb(200, 0, 217);"/><rect class="cls-85_taj-mahal-52 targetColor" x="383.28" y="289.4" width="16.14" height="11.96" style="fill: rgb(200, 0, 217);"/><path class="cls-60_taj-mahal-52" d="M393.76,298.05h-.77v-4.66c.02-.27.12-.53.3-.74.3-.41.69-.75,1.13-1l.95-.51.95.51c.45.24.84.58,1.13,1,.17.21.28.47.3.74v4.66h-3.99Z"/><path class="cls-85_taj-mahal-52 targetColor" d="M393.31,292.65c.3-.41.69-.75,1.13-1l.95-.51.6.32-.92.49c-.48.25-.89.6-1.2,1.04-.19.21-.3.49-.32.77v4.29h-.58v-4.66c.03-.27.14-.53.33-.74Z" style="fill: rgb(200, 0, 217);"/><path class="cls-61_taj-mahal-52" d="M387.33,298.05h-.77v-4.66c.02-.27.13-.53.31-.74.3-.42.68-.76,1.13-1l.95-.51.95.51c.45.24.84.58,1.13,1,.17.21.28.47.3.74v4.66h-4.06.06Z"/><path class="cls-85_taj-mahal-52 targetColor" d="M386.86,292.65c.3-.42.68-.76,1.13-1l.95-.51.6.32-.91.49c-.48.25-.9.61-1.21,1.04-.18.22-.3.49-.32.77v4.29h-.58v-4.66c.02-.28.14-.53.33-.74Z" style="fill: rgb(200, 0, 217);"/><path class="cls-85_taj-mahal-52 targetColor" d="M380.88,298.05h-.74v-4.66c.02-.27.12-.53.3-.74.3-.42.68-.76,1.13-1l.95-.51.94.51c.45.24.84.58,1.13,1,.18.21.29.46.31.74v4.66h-4.06.03Z" style="fill: rgb(200, 0, 217);"/><path class="cls-59_taj-mahal-52" d="M393.76,298.05h-.77v-4.66c.02-.27.12-.53.3-.74.3-.41.69-.75,1.13-1l.95-.51.95.51c.45.24.84.58,1.13,1,.17.21.28.47.3.74v4.66h-3.99Z"/><path class="cls-58_taj-mahal-52" d="M387.33,298.05h-.77v-4.66c.02-.27.13-.53.31-.74.3-.42.68-.76,1.13-1l.95-.51.95.51c.45.24.84.58,1.13,1,.17.21.28.47.3.74v4.66h-4.06.06Z"/><path class="cls-57_taj-mahal-52" d="M380.88,298.05h-.74v-4.66c.02-.27.12-.53.3-.74.3-.42.68-.76,1.13-1l.95-.51.94.51c.45.24.84.58,1.13,1,.18.21.29.46.31.74v4.66h-4.06.03Z"/><path class="cls-85_taj-mahal-52 targetColor" d="M380.41,292.65c.3-.42.68-.76,1.13-1l.95-.51.6.32-.92.49c-.48.25-.9.61-1.21,1.04-.18.22-.29.49-.31.77v4.29h-.51v-4.66c0-.27.1-.52.26-.74Z" style="fill: rgb(200, 0, 217);"/><rect class="cls-85_taj-mahal-52 targetColor" x="376.64" y="288.15" width="24.61" height="2.22" style="fill: rgb(200, 0, 217);"/><rect class="cls-85_taj-mahal-52 targetColor" x="376.64" y="300.59" width="24.61" height="2.22" style="fill: rgb(200, 0, 217);"/><rect class="cls-74_taj-mahal-52" x="376.64" y="288.15" width="24.61" height="2.22"/><rect class="cls-75_taj-mahal-52" x="376.64" y="300.59" width="24.61" height="2.22"/><rect class="cls-85_taj-mahal-52 targetColor" x="380.12" y="325.05" width="18.3" height="3.32" rx=".91" ry=".91" style="fill: rgb(200, 0, 217);"/><rect class="cls-85_taj-mahal-52 targetColor" x="378.64" y="361.21" width="21.28" height="3.86" rx="1.06" ry="1.06" style="fill: rgb(200, 0, 217);"/><rect class="cls-85_taj-mahal-52 targetColor" x="277.72" y="374.05" width="42.74" height="3.89" style="fill: rgb(200, 0, 217);"/><rect class="cls-85_taj-mahal-52 targetColor" x="320.47" y="377.57" width="20.16" height="3.89" style="fill: rgb(200, 0, 217);"/><rect class="cls-85_taj-mahal-52 targetColor" x="64.35" y="408.61" width="340.29" height="19.88" style="fill: rgb(200, 0, 217);"/><rect class="cls-73_taj-mahal-52" x="64.35" y="408.61" width="340.29" height="19.88"/><rect class="cls-85_taj-mahal-52 targetColor" x="64.35" y="408.61" width="340.29" height="6.55" style="fill: rgb(200, 0, 217);"/></g></svg>